<?xml version="1.0" encoding="utf-8"?>
<!-- Generator: Adobe Illustrator 16.0.0, SVG Export Plug-In . SVG Version: 6.00 Build 0)  -->
<!DOCTYPE svg PUBLIC "-//W3C//DTD SVG 1.1//EN" "http://www.w3.org/Graphics/SVG/1.1/DTD/svg11.dtd">
<svg version="1.1" id="Layer_1" xmlns="http://www.w3.org/2000/svg" xmlns:xlink="http://www.w3.org/1999/xlink" x="0px" y="0px"
	 width="1200px" height="466.806px" viewBox="0 0 1200 466.806" enable-background="new 0 0 1200 466.806" xml:space="preserve">
<path fill-rule="evenodd" clip-rule="evenodd" fill="#060404" d="M339.884,436.735c-2.863-8.275-5.733-16.505-8.561-24.75
	c-8.672-25.29-17.349-50.577-25.985-75.878c-7.375-21.606-14.697-43.229-22.042-64.846c-2.116-6.226-4.09-12.506-6.392-18.663
	c-1.478-3.953-1.345-7.353,1.757-10.447c1.881-1.876-0.058-2.242-1.261-2.721c-9.432-3.758-18.674-7.943-27.877-12.223
	c-9.208-4.284-18.245-8.905-27.22-13.653c-0.867-0.458-1.669-1.316-2.774-0.318c-5.36,4.836-11.816,8.051-17.851,11.866
	c-42.071,26.596-84.205,53.093-126.33,79.604c-2.213,1.393-4.526,2.625-7.232,4.186c0-4.959-0.129-9.416,0.021-13.863
	c1.116-33.175,2.296-66.347,3.439-99.521c0.937-27.164,1.842-54.33,2.799-81.492c0.048-1.361,0.066-2.978,0.773-4.014
	c2.12-3.104,0.471-4.819-1.667-6.931c-14-13.825-27.314-28.234-37.15-45.465c-5.491-9.619-8.696-19.992-10.23-31.219
	c4.598,0,8.982,0.013,13.365-0.011c0.909-0.005,1.382,0.165,1.641,1.224c5.646,23.137,21.13,39.905,37.013,56.241
	c31.953,32.865,67.752,61.106,105.763,86.602c34.278,22.991,70.729,41.837,109.176,56.824
	c33.18,12.934,67.227,23.021,101.903,31.064c23.392,5.427,46.987,9.737,70.762,13.037c13.96,1.938,27.998,3.223,42.048,4.428
	c28.04,2.403,56.125,3.115,84.24,2.552c22.198-0.445,44.349-1.854,66.472-3.837c23.478-2.106,46.815-5.202,70.024-9.251
	c40.084-6.993,79.521-16.576,118.097-29.631c42.378-14.342,82.974-32.49,121.037-56.119
	c44.507-27.627,82.811-61.974,112.799-105.114c9.947-14.31,19.207-29.134,26.411-45.094c0.982-2.174,2.125-3.088,4.608-2.979
	c5.077,0.222,10.172,0.067,15.552,0.067c-2.55,6.666-5.777,12.764-8.914,18.885c-5.106,9.963-10.659,19.687-16.872,29.01
	c-0.972,1.458-1.024,2.614-0.345,4.134c12.578,28.114,25.124,56.241,37.672,84.369c10.099,22.636,20.19,45.275,30.467,68.318
	c-4.879-0.108-9.179-1.211-13.499-1.978c-24.09-4.275-48.152-8.713-72.243-12.989c-35.787-6.353-71.601-12.563-107.368-19.032
	c-2.606-0.471-4.295,0.127-6.342,1.347c-12.284,7.325-24.775,14.287-37.666,20.497c-2.062,0.994-2.747,2.164-2.814,4.459
	c-1.097,37.341-2.276,74.679-3.5,112.017c-0.603,18.373-1.336,36.742-2.005,55.113c-0.028,0.766-0.004,1.535-0.004,3.052
	c-6.368-4.548-12.183-8.637-17.931-12.818c-21.949-15.964-43.87-31.966-65.814-47.936c-25.492-18.552-51.004-37.077-76.476-55.656
	c-0.967-0.705-1.83-0.835-2.887-0.607c-18.499,3.987-37.138,7.191-55.87,9.857c-2.068,0.293-3.216,0.507-2.107,3.107
	c1.079,2.532,0.308,5.214-0.662,7.754c-6.738,17.658-13.469,35.318-20.182,52.984c-12.005,31.593-23.98,63.197-36.009,94.78
	c-1.88,4.936-3.975,9.791-6.193,15.227c-8.589-12.222-16.872-23.984-25.133-35.763c-26.396-37.634-52.85-75.227-79.098-112.963
	c-3.655-5.254-8.222-10.001-10.3-16.307c-0.543-1.649-2.333-1.175-3.593-1.253c-11.652-0.729-23.277-1.722-34.892-2.913
	c-12.177-1.248-24.297-2.877-36.39-4.745c-0.891-0.138-1.805-0.122-3.183-0.208c2.768,5.553,0.311,9.527-2.859,13.701
	c-21.51,28.323-42.855,56.772-64.269,85.168c-12.448,16.507-24.919,32.996-37.401,49.478
	C341.735,435.263,341.318,436.283,339.884,436.735z M345.488,404.004c30.339-40.25,60.174-79.834,90.247-119.731
	c-49.345-8.687-97.244-21.248-144.441-39.041C309.458,298.448,327.327,350.796,345.488,404.004z M635.202,426.528
	c0.654-1.452,1.122-2.369,1.487-3.325c4.45-11.649,8.885-23.304,13.326-34.957c12.177-31.946,24.357-63.89,36.531-95.837
	c1.385-3.635,1.344-3.636-2.437-3.164c-23.421,2.919-46.933,4.765-70.512,5.695c-22.079,0.871-44.165,1.385-66.258,0.391
	c-0.954-0.043-2.406-0.609-2.805,0.497c-0.253,0.702,0.596,1.842,1.043,2.74c0.253,0.507,0.714,0.905,1.046,1.378
	c18.836,26.87,37.679,53.735,56.497,80.617C613.721,395.702,624.277,410.871,635.202,426.528z M90.39,119.746
	c-0.711,18.212-1.473,35.539-2.047,52.872C87.202,207.077,86.16,241.539,85.102,276c-0.03,0.975-0.667,2.299,0.412,2.858
	c1.001,0.52,1.882-0.609,2.717-1.134c19.758-12.428,39.489-24.9,59.241-37.339c18.39-11.581,36.782-23.159,55.218-34.667
	c2.192-1.369,1.881-2.009-0.124-3.167c-13.921-8.039-27.362-16.831-40.512-26.067c-19.587-13.758-38.708-28.123-56.79-43.833
	C100.498,128.507,95.724,124.373,90.39,119.746z M908.424,363.007c0.155-2.193,0.324-3.783,0.373-5.375
	c0.61-19.884,1.18-39.769,1.807-59.652c0.696-22.078,1.396-44.157,2.214-66.231c0.114-3.072-0.649-3.287-3.23-2.083
	c-5.023,2.344-10.172,4.426-15.29,6.566c-28.939,12.101-58.639,21.941-88.966,29.913c-7.1,1.866-14.202,3.72-22.187,5.811
	C825.198,302.52,866.612,332.619,908.424,363.007z M992.787,183.837c2.909,0.59,5.158,1.099,7.425,1.5
	c23.209,4.105,46.421,8.187,69.631,12.286c23.103,4.08,46.203,8.175,69.308,12.245c0.762,0.133,1.664,0.833,2.297,0.141
	c0.777-0.85-0.108-1.72-0.457-2.503c-3.949-8.864-7.948-17.706-11.9-26.568c-12.713-28.495-25.411-56.996-38.115-85.494
	c-1.58-3.544-1.597-3.551-3.913-0.501c-22.24,29.274-48.038,54.963-77.563,76.883C1004.147,175.798,998.678,179.609,992.787,183.837
	z"/>
<path fill-rule="evenodd" clip-rule="evenodd" fill="#F9ACA5" d="M345.488,404.004c-18.162-53.208-36.03-105.556-54.194-158.772
	c47.197,17.793,95.097,30.354,144.441,39.041C405.663,324.17,375.827,363.753,345.488,404.004z"/>
<path fill-rule="evenodd" clip-rule="evenodd" fill="#F97A6F" d="M635.202,426.528c-10.925-15.657-21.481-30.826-32.08-45.965
	c-18.817-26.882-37.661-53.748-56.497-80.617c-0.332-0.473-0.793-0.871-1.046-1.378c-0.448-0.897-1.296-2.038-1.043-2.74
	c0.398-1.106,1.851-0.54,2.805-0.497c22.093,0.995,44.179,0.48,66.258-0.391c23.579-0.93,47.091-2.776,70.512-5.695
	c3.78-0.472,3.821-0.471,2.437,3.164c-12.174,31.947-24.354,63.892-36.531,95.837c-4.441,11.653-8.876,23.308-13.326,34.957
	C636.324,424.16,635.856,425.076,635.202,426.528z"/>
<path fill-rule="evenodd" clip-rule="evenodd" fill="#F97A6F" d="M90.39,119.746c5.334,4.626,10.108,8.761,14.875,12.904
	c18.081,15.71,37.202,30.076,56.79,43.833c13.15,9.236,26.591,18.029,40.512,26.067c2.005,1.158,2.316,1.799,0.124,3.167
	c-18.436,11.508-36.828,23.085-55.218,34.667c-19.751,12.439-39.482,24.911-59.241,37.339c-0.835,0.525-1.716,1.654-2.717,1.134
	c-1.079-0.559-0.442-1.883-0.412-2.858c1.059-34.461,2.1-68.923,3.241-103.382C88.917,155.285,89.679,137.958,90.39,119.746z"/>
<path fill-rule="evenodd" clip-rule="evenodd" fill="#F9ABA5" d="M908.424,363.007c-41.812-30.388-83.226-60.487-125.279-91.053
	c7.984-2.091,15.087-3.945,22.187-5.811c30.327-7.972,60.026-17.813,88.966-29.913c5.118-2.14,10.267-4.222,15.29-6.566
	c2.581-1.204,3.345-0.989,3.23,2.083c-0.818,22.074-1.518,44.153-2.214,66.231c-0.627,19.883-1.196,39.769-1.807,59.652
	C908.748,359.225,908.579,360.814,908.424,363.007z"/>
<path fill-rule="evenodd" clip-rule="evenodd" fill="#F87A70" d="M992.787,183.837c5.891-4.228,11.36-8.039,16.711-12.011
	c29.525-21.92,55.323-47.608,77.563-76.883c2.316-3.05,2.333-3.043,3.913,0.501c12.704,28.498,25.402,56.999,38.115,85.494
	c3.952,8.862,7.951,17.704,11.9,26.568c0.349,0.783,1.234,1.653,0.457,2.503c-0.633,0.691-1.535-0.008-2.297-0.141
	c-23.104-4.07-46.205-8.165-69.308-12.245c-23.21-4.099-46.422-8.181-69.631-12.286
	C997.945,184.937,995.696,184.428,992.787,183.837z"/>
</svg>
