<?xml version="1.0" standalone="no"?>
<!DOCTYPE svg PUBLIC "-//W3C//DTD SVG 20010904//EN"
 "http://www.w3.org/TR/2001/REC-SVG-20010904/DTD/svg10.dtd">
<svg version="1.0" xmlns="http://www.w3.org/2000/svg"
 width="6890.000000pt" height="6890.000000pt" viewBox="0 0 6890.000000 6890.000000"
 preserveAspectRatio="xMidYMid meet">

<g transform="translate(0.000000,6890.000000) scale(0.100000,-0.100000)"
fill="#000000" stroke="none">
<path d="M34579 62770 c-160 -29 -330 -98 -466 -191 -56 -38 -221 -195 -573
-544 -272 -270 -778 -766 -1125 -1102 -751 -728 -1063 -1044 -1501 -1518
-1116 -1210 -2250 -2670 -3021 -3890 -922 -1459 -1873 -3352 -2595 -5165 -501
-1260 -827 -2569 -983 -3955 -100 -891 -137 -1738 -105 -2430 25 -535 25 -536
1 -586 -12 -25 -56 -88 -98 -140 -479 -594 -854 -1073 -1203 -1539 -1871
-2496 -3022 -4633 -3456 -6416 -98 -404 -158 -692 -273 -1304 -162 -863 -230
-1311 -281 -1854 -11 -120 -25 -237 -31 -260 -13 -52 -62 -129 -95 -150 l-24
-16 0 -361 0 -361 45 -40 c25 -22 54 -57 64 -77 10 -20 33 -109 50 -198 70
-360 133 -496 316 -678 104 -105 202 -173 325 -226 169 -73 296 -92 525 -79
208 12 192 11 935 115 825 117 929 131 1905 255 435 56 1008 130 1275 166
1155 155 2527 316 3040 355 267 20 535 1 719 -52 73 -21 449 -79 666 -103 330
-36 749 -63 1405 -91 949 -40 1564 -53 3065 -65 3435 -27 6370 68 7860 255
405 51 714 109 1070 199 116 30 231 57 256 60 27 4 145 -4 285 -18 131 -14
417 -44 634 -66 506 -52 912 -102 1569 -195 289 -41 904 -126 1366 -190 954
-130 1361 -188 2410 -344 1263 -188 1155 -174 1295 -168 274 12 494 105 692
295 175 168 275 357 332 630 54 255 61 343 61 802 0 520 -22 804 -111 1420
-59 410 -290 1755 -360 2095 -150 729 -394 1488 -704 2195 -212 482 -562 1173
-893 1760 -656 1167 -1678 2650 -2811 4079 -311 392 -312 392 -357 485 -51
105 -65 177 -89 471 -81 995 -198 1766 -411 2720 -296 1319 -720 2690 -1355
4377 -585 1555 -1171 2837 -1709 3738 -376 630 -721 1110 -1439 2005 -932
1161 -2283 2677 -3896 4375 -996 1048 -1303 1330 -1572 1442 -152 64 -233 80
-418 84 -91 1 -186 -1 -211 -6z m267 -2619 c124 -90 1717 -1803 2565 -2756
715 -804 1571 -1821 1734 -2059 61 -89 61 -85 -14 -140 -77 -56 -633 -282
-1066 -434 -892 -313 -1975 -558 -2799 -632 -623 -56 -1507 -6 -2056 116 -241
54 -719 203 -1120 349 -553 201 -1544 623 -1649 701 l-49 37 14 40 c22 62 42
91 288 417 499 664 970 1240 1476 1810 592 666 1049 1127 2416 2441 155 149
188 163 260 110z m-5221 -6861 c873 -393 1527 -654 2190 -875 705 -235 1091
-323 1735 -394 917 -102 1594 -90 2530 45 821 118 1617 309 2470 593 521 174
823 290 1509 581 287 121 340 140 370 135 20 -3 44 -12 53 -19 40 -29 277
-490 485 -941 306 -662 567 -1298 907 -2208 868 -2323 1345 -4153 1540 -5917
51 -460 51 -459 51 -1375 0 -937 -2 -987 -61 -1560 -195 -1903 -522 -3441
-1345 -6327 -286 -1003 -609 -2023 -692 -2188 -35 -69 -70 -83 -312 -124 -457
-77 -890 -121 -1730 -176 -825 -53 -1593 -82 -2680 -101 -846 -14 -5270 -7
-5635 10 -140 6 -579 24 -975 41 -396 16 -774 36 -840 45 -66 8 -199 21 -295
30 -96 9 -197 20 -224 25 -102 21 -135 70 -197 298 -22 81 -105 370 -184 642
-671 2305 -1131 4254 -1434 6075 -261 1563 -457 3298 -501 4430 -52 1334 119
2836 470 4122 244 895 527 1635 1113 2908 432 940 1095 2228 1209 2348 35 37
40 39 85 35 34 -3 149 -50 388 -158z m-5023 -13210 c15 -74 45 -252 68 -395
222 -1408 444 -2486 836 -4055 221 -887 404 -1577 635 -2400 55 -195 105 -390
112 -432 17 -115 13 -120 -120 -151 -142 -33 -123 -31 -548 -77 -621 -69
-1165 -138 -2485 -319 -1110 -152 -1588 -211 -1788 -222 -247 -14 -232 -24
-232 154 0 142 11 229 96 742 115 695 268 1466 380 1910 255 1011 851 2271
1727 3650 455 715 1114 1652 1210 1720 12 9 35 14 52 13 l29 -3 28 -135z
m20950 47 c61 -53 561 -784 888 -1296 861 -1354 1487 -2653 1761 -3655 149
-543 381 -1795 494 -2665 38 -292 32 -346 -36 -370 -39 -14 -126 -2 -1184 154
-1092 162 -1436 210 -2515 350 -525 69 -1007 134 -1070 145 -113 21 -187 47
-211 76 -9 11 18 115 144 537 255 852 588 2029 778 2752 360 1361 633 2647
779 3665 37 257 51 313 82 328 36 17 51 14 90 -21z"/>
<path d="M34525 49463 c-549 -43 -905 -112 -1355 -263 -1794 -598 -3143 -2156
-3485 -4025 -65 -355 -91 -686 -82 -1060 7 -278 22 -458 62 -704 228 -1404
1016 -2657 2185 -3475 855 -598 1937 -938 2986 -937 1176 1 2345 411 3262
1144 932 745 1581 1780 1841 2932 277 1233 102 2535 -490 3636 -248 461 -535
846 -913 1225 -904 903 -2059 1430 -3341 1524 -126 9 -570 11 -670 3z m749
-2173 c188 -28 453 -97 622 -160 434 -163 802 -398 1124 -720 538 -536 845
-1229 900 -2027 26 -389 -61 -889 -226 -1301 -355 -885 -1092 -1546 -2019
-1813 -147 -42 -332 -79 -505 -101 -155 -19 -552 -16 -715 6 -1136 154 -2069
874 -2484 1916 -326 819 -293 1713 94 2505 449 919 1346 1563 2365 1699 179
24 180 24 450 21 199 -2 286 -8 394 -25z"/>
<path d="M28030 29814 c-14 -2 -59 -9 -100 -15 -150 -22 -313 -87 -436 -174
-169 -120 -374 -402 -442 -608 -67 -200 -65 -362 4 -567 107 -314 771 -2156
800 -2215 147 -308 398 -496 764 -572 80 -16 426 -17 6360 -21 4465 -2 6312 0
6403 8 281 24 490 112 673 282 136 128 141 137 780 1409 331 657 610 1223 622
1259 33 98 43 164 43 285 1 245 -78 432 -256 611 -122 123 -266 211 -437 269
-178 59 387 55 -7513 54 -3982 -1 -7251 -3 -7265 -5z m12676 -1917 c13 -15 24
-36 24 -45 0 -23 -95 -219 -126 -259 -14 -18 -39 -41 -57 -51 -30 -16 -310
-17 -5444 -17 l-5412 0 -29 28 c-41 40 -77 109 -101 197 -32 112 -25 147 30
169 15 6 2013 9 5557 8 l5534 -2 24 -28z"/>
<path d="M30185 24274 c-282 -28 -515 -121 -692 -275 -256 -222 -339 -537
-215 -812 59 -129 95 -173 496 -612 3221 -3523 3953 -4320 4067 -4431 121
-116 195 -169 325 -231 218 -103 545 -141 764 -88 36 9 97 17 135 19 50 2 86
10 125 29 30 14 94 43 142 66 100 46 180 98 257 167 40 36 3426 3617 4500
4759 160 169 233 287 260 413 18 85 14 218 -9 300 -142 511 -803 798 -1424
617 -178 -52 -318 -132 -458 -263 -85 -80 -679 -707 -2532 -2672 -604 -641
-1117 -1184 -1141 -1208 l-41 -43 -1759 1923 c-968 1058 -1791 1956 -1830
1996 -169 177 -350 275 -596 323 -95 18 -297 31 -374 23z"/>
<path d="M52934 12316 c-115 -28 -205 -99 -249 -198 -33 -72 -43 -205 -26
-318 7 -41 79 -383 161 -760 197 -905 364 -1687 511 -2385 151 -723 174 -825
210 -962 68 -256 156 -482 261 -667 80 -140 213 -280 323 -338 101 -53 230
-88 324 -88 109 0 160 20 239 94 62 58 71 73 173 281 399 816 856 1951 1327
3300 208 594 337 971 375 1095 36 120 41 146 41 235 0 67 -6 120 -18 160 -91
304 -396 537 -685 523 -105 -5 -168 -35 -241 -115 -83 -91 -135 -213 -343
-803 -427 -1213 -783 -2203 -847 -2353 l-67 -159 -22 84 c-12 45 -124 551
-250 1123 -401 1817 -387 1762 -459 1900 -44 85 -161 206 -247 257 -165 96
-342 130 -491 94z"/>
<path d="M15065 11990 c-159 -22 -347 -101 -480 -201 -197 -148 -366 -376
-449 -609 -47 -129 -67 -228 -73 -365 -13 -304 82 -568 407 -1125 352 -604
450 -885 450 -1288 0 -202 -36 -325 -121 -417 -120 -130 -286 -148 -704 -74
-214 38 -257 43 -400 43 -144 1 -166 -2 -216 -22 -85 -34 -142 -90 -189 -185
-100 -202 -87 -369 38 -509 127 -141 381 -243 722 -290 140 -19 517 -16 660 5
352 52 484 117 720 356 352 356 575 812 605 1241 15 210 -59 562 -184 872 -55
138 -130 277 -285 527 -304 490 -429 735 -476 933 -34 143 -23 227 39 289 77
78 237 74 464 -11 53 -20 56 -23 46 -43 -9 -20 -9 -20 4 -4 18 22 19 22 111
-13 44 -17 82 -27 85 -23 3 5 38 51 77 103 218 291 282 481 185 549 -34 24
-398 158 -544 200 -199 57 -369 78 -492 61z"/>
<path d="M40210 10773 c-91 -9 -232 -38 -302 -63 -285 -100 -429 -315 -556
-830 -94 -378 -438 -2098 -483 -2412 -24 -163 27 -306 155 -434 118 -118 247
-166 387 -144 191 29 290 147 328 390 8 46 61 652 61 688 0 1 9 -2 20 -8 16
-9 49 -4 148 20 324 80 451 79 601 0 89 -48 160 -111 298 -268 142 -161 239
-243 478 -404 232 -157 536 -328 582 -328 42 0 104 40 174 112 90 92 124 160
116 232 -3 29 -14 71 -25 92 -36 69 -284 342 -834 919 l-77 81 125 209 c147
247 267 484 291 575 24 93 21 235 -10 410 -35 194 -68 303 -131 436 -71 147
-141 250 -248 360 -188 195 -410 314 -668 358 -86 15 -323 20 -430 9z m409
-677 c114 -59 242 -216 276 -340 25 -91 17 -234 -19 -335 -131 -375 -492 -674
-864 -714 -36 -4 -42 -3 -38 11 3 10 33 150 66 312 95 457 182 805 220 880 26
50 125 144 190 179 67 37 106 39 169 7z"/>
<path d="M35350 10734 c-190 -24 -402 -74 -418 -98 -4 -6 -7 -312 -7 -681 0
-591 -2 -684 -18 -790 -65 -442 -205 -750 -452 -1000 -276 -279 -552 -329
-764 -139 -102 91 -227 310 -295 515 -116 349 -126 680 -41 1469 19 176 16
346 -9 426 -19 61 -82 137 -138 165 -61 31 -182 58 -289 66 -96 6 -98 7 -102
32 l-4 26 -2 -26 -1 -26 -112 5 c-99 4 -338 -16 -399 -34 -17 -5 -30 -194 -51
-773 -33 -925 78 -1557 353 -2008 107 -174 320 -418 478 -545 167 -135 378
-254 551 -312 156 -52 272 -70 450 -70 237 -1 377 32 595 139 492 241 945 753
1063 1200 60 228 138 917 163 1445 11 238 7 901 -7 981 -6 35 -9 37 -52 43
-77 10 -381 4 -492 -10z"/>
<path d="M28660 10724 c-119 -8 -367 -36 -615 -69 -536 -72 -705 -80 -958 -46
-78 11 -176 22 -217 26 -41 3 -178 22 -305 42 -206 33 -250 37 -425 37 -176 0
-201 -2 -253 -22 -112 -42 -179 -110 -215 -217 -42 -126 -37 -267 13 -365 31
-61 120 -141 198 -179 84 -41 213 -77 354 -98 102 -16 179 -18 581 -16 l462 2
3 -537 c1 -295 0 -827 -2 -1182 l-3 -645 25 -78 c14 -43 44 -110 68 -150 50
-84 171 -208 250 -255 119 -70 258 -100 385 -83 200 28 302 133 335 344 13 84
8 178 -26 472 -42 363 -45 419 -45 976 -1 594 6 743 47 969 18 104 35 135 88
160 75 36 142 42 590 49 321 5 446 10 462 19 65 37 113 151 120 293 16 288
-140 518 -351 519 -23 0 -77 7 -121 15 -81 15 -345 26 -445 19z"/>
<path d="M45290 10711 c-82 -25 -152 -95 -175 -176 -8 -27 -28 -190 -45 -362
-16 -171 -77 -718 -134 -1215 -189 -1622 -193 -1669 -161 -1792 21 -79 75
-180 130 -243 102 -116 281 -202 440 -210 105 -6 144 7 199 63 67 69 71 88
141 787 121 1204 153 1496 168 1517 13 19 18 12 75 -97 84 -165 663 -1375 844
-1768 75 -162 134 -254 209 -326 130 -126 333 -189 471 -147 55 16 134 90 167
157 37 72 38 77 191 936 72 402 187 1041 256 1420 122 668 125 694 121 800 -5
122 -27 199 -88 302 -102 173 -317 303 -499 303 -109 0 -168 -37 -210 -132
-27 -62 -113 -491 -255 -1278 -64 -349 -118 -648 -121 -664 l-6 -30 -16 30
c-8 16 -267 450 -575 964 -630 1051 -612 1025 -769 1100 -123 59 -277 85 -358
61z"/>
<path d="M21260 10690 c-127 -33 -252 -102 -334 -184 -72 -71 -73 -72 -326
-571 -518 -1023 -794 -1547 -1118 -2126 -81 -144 -143 -285 -167 -379 -25 -94
-17 -219 17 -285 48 -92 149 -170 283 -218 252 -89 464 -39 660 158 100 99
168 196 270 385 84 155 260 426 283 436 31 13 392 17 556 5 219 -16 515 -50
537 -61 29 -16 64 -106 113 -293 67 -256 108 -351 185 -420 56 -51 95 -59 228
-47 293 26 484 157 539 370 25 98 15 183 -36 316 -134 345 -265 777 -400 1317
-114 453 -153 596 -222 807 -98 301 -138 371 -295 520 -151 144 -327 252 -451
279 -82 17 -236 13 -322 -9z m334 -1091 c1 -2 42 -236 90 -519 48 -283 90
-525 93 -537 l5 -23 -417 0 c-400 0 -416 1 -410 18 3 11 109 232 236 493 127
261 244 502 259 536 l29 62 56 -14 c31 -7 57 -14 59 -16z"/>
</g>
</svg>
