<?xml version="1.0" encoding="UTF-8"?>
<svg version="1.1" xmlns="http://www.w3.org/2000/svg" width="2048" height="2048">
<path d="M0 0 C0.70322639 0.00011959 1.40645279 0.00023918 2.13098907 0.0003624 C22.97716262 0.00483968 43.73547051 0.12559801 64.5 2.1875 C66.25449463 2.35620605 66.25449463 2.35620605 68.04443359 2.52832031 C98.14882629 5.49906778 127.94982446 12.40493959 155.29980469 25.7043457 C158.3164726 27.10244286 161.33435441 28.29279442 164.453125 29.44140625 C171.91034688 32.27933021 179.10472053 35.59377463 186.3125 39 C187.64807417 39.62801011 188.9836865 40.25593905 190.31933594 40.88378906 C205.01620232 47.80579131 219.35125773 55.11057655 233.50976562 63.07714844 C236.17595503 64.56461525 238.86889672 66.00040998 241.5625 67.4375 C245.61203587 69.63176905 249.38973901 72.08134576 253.18359375 74.6875 C255.74120933 76.34369626 258.36857766 77.76457541 261.0625 79.1875 C265.21700258 81.40053823 268.85016407 83.85471147 272.54296875 86.7578125 C274.59847163 88.25943736 276.68807603 89.43618526 278.9375 90.625 C283.08608106 92.8489816 286.65937783 95.49814023 290.32421875 98.44140625 C292.30842798 100.03376087 294.32557481 101.55569248 296.375 103.0625 C300.55555878 106.183432 304.58042247 109.48189672 308.6015625 112.8046875 C310.60582717 114.45239835 312.61683601 116.08231366 314.6484375 117.6953125 C316.15277344 118.89800781 316.15277344 118.89800781 317.6875 120.125 C318.60917969 120.85589844 319.53085938 121.58679688 320.48046875 122.33984375 C321.48013672 123.25443359 321.48013672 123.25443359 322.5 124.1875 C322.5 124.8475 322.5 125.5075 322.5 126.1875 C323.16 126.1875 323.82 126.1875 324.5 126.1875 C325.86176922 127.83101457 327.18962066 129.50272656 328.5 131.1875 C329.61761719 132.29738281 329.61761719 132.29738281 330.7578125 133.4296875 C333.85120599 136.54070716 336.71149575 139.79344912 339.5625 143.125 C340.07876953 143.71990234 340.59503906 144.31480469 341.12695312 144.92773438 C344.21510849 148.527304 346.88766238 152.22101185 349.5 156.1875 C351.74955579 158.99847006 354.061487 161.74879567 356.37890625 164.50390625 C358.33840926 166.98305646 359.87778189 169.48380314 361.5 172.1875 C362.95067453 174.0228838 364.43158468 175.83466223 365.9375 177.625 C369.58829262 182.02829093 372.99216595 186.43849161 375.75073242 191.46777344 C377.4630006 194.19244017 378.98616132 196.16459546 381.5 198.1875 C386.02544523 198.94042686 390.20027882 198.09232545 394.6875 197.3125 C397.38859397 196.92931469 400.09447783 196.58638542 402.80078125 196.2421875 C403.85821533 196.10151855 403.85821533 196.10151855 404.93701172 195.95800781 C413.06266264 194.91071797 421.1905737 194.62605236 429.375 194.4375 C430.13062225 194.41943298 430.88624451 194.40136597 431.6647644 194.38275146 C465.62354006 193.6253335 499.64772271 195.01703932 532.83398438 202.61181641 C537.78562209 203.68104367 542.78747178 204.4513169 547.79638672 205.19921875 C551.88425226 205.83039702 555.59199255 206.85813681 559.5 208.1875 C561.36867564 208.51726629 563.24450558 208.80865916 565.125 209.0625 C570.58824403 209.91655552 575.56944953 211.41557386 580.7734375 213.2578125 C583.65833965 214.29542583 583.65833965 214.29542583 587.375 215.0625 C604.57503086 219.26538228 619.92385179 230.0991282 632.5 242.1875 C633.37785156 242.94289063 634.25570313 243.69828125 635.16015625 244.4765625 C651.41698517 258.51551181 664.28423544 277.9892738 671.5 298.1875 C672.06460937 299.61642578 672.06460937 299.61642578 672.640625 301.07421875 C674.72891857 306.46407504 676.25945218 311.40389377 676.5 317.1875 C676.53996094 318.13753906 676.57992188 319.08757812 676.62109375 320.06640625 C676.75013389 326.13129264 676.13450945 331.34492174 674.5 337.1875 C674.23550049 338.15316895 673.97100098 339.11883789 673.69848633 340.11376953 C670.25558279 352.51646201 666.8425959 364.66620134 661.015625 376.17578125 C659.64632942 378.89672685 658.54527047 381.58072265 657.5 384.4375 C655.67975397 389.13141103 653.13212031 393.13852012 650.35546875 397.32421875 C648.44035677 400.27953892 646.71979645 403.30255466 645 406.375 C642.4471821 410.80944548 639.71010925 414.57884165 636.17578125 418.2734375 C634.36569425 420.25406861 634.36569425 420.25406861 632.65234375 422.984375 C630.23993366 426.57453158 627.5777629 429.7973477 624.75 433.0625 C624.22140381 433.67601318 623.69280762 434.28952637 623.14819336 434.92163086 C619.12595969 439.55194062 614.93062424 443.9449683 610.5 448.1875 C609.695625 448.991875 608.89125 449.79625 608.0625 450.625 C607.216875 451.470625 606.37125 452.31625 605.5 453.1875 C604.86707031 453.84363281 604.23414063 454.49976563 603.58203125 455.17578125 C597.90107446 460.99750511 591.87418876 466.14264335 585.5 471.1875 C584.36942838 472.09720495 583.23923406 473.00737895 582.109375 473.91796875 C575.69096137 479.06017017 569.18359298 483.88066456 562.28125 488.3671875 C559.72314629 490.04145201 557.23464355 491.78183879 554.75 493.5625 C544.92085656 500.46481251 534.66028832 506.61998749 524.125 512.375 C517.60578096 515.94669615 511.42605313 519.67791811 505.5 524.1875 C504.51128906 524.93515625 503.52257813 525.6828125 502.50390625 526.453125 C497.97038746 529.90598744 493.46594521 533.38873541 489.05078125 536.9921875 C482.1893587 542.55849369 475.33259224 547.15864605 467.5859375 551.40625 C462.88348509 554.12057696 458.27778094 556.85415718 456.5 562.1875 C456.45018888 564.85977446 456.45641836 567.50527426 456.5078125 570.17578125 C456.52797007 571.83462318 456.54704897 573.49347849 456.56518555 575.15234375 C456.57560883 576.02487793 456.5860321 576.89741211 456.59677124 577.79638672 C457.16654611 632.36665143 457.16654611 632.36665143 448.5 653.1875 C448.0978125 654.858125 448.0978125 654.858125 447.6875 656.5625 C444.80580975 668.39489482 440.18091464 679.77278864 435.87329102 691.13745117 C433.31085975 697.93063816 430.91948611 704.75487913 428.67260742 711.65795898 C426.59619902 718.00242017 424.29699412 724.25403542 421.9621582 730.50732422 C420.40517676 734.68893153 418.91995984 738.87322049 417.5625 743.125 C415.20908293 750.34755582 412.28409774 757.34598139 409.43359375 764.3828125 C407.94176638 768.06917577 406.51382518 771.77340148 405.125 775.5 C399.42443036 790.40621927 392.88771902 805.04349093 385.5 819.1875 C384.74431596 820.66642369 383.98914134 822.14560775 383.234375 823.625 C375.639655 838.40067857 367.34778316 852.78562968 357.5 866.1875 C356.39056299 867.71349659 355.28119526 869.23954354 354.171875 870.765625 C352.92782591 872.46929249 351.68302466 874.17241098 350.4375 875.875 C349.84735107 876.68380615 349.25720215 877.4926123 348.64916992 878.32592773 C343.97012237 884.68302365 339.08053413 890.60696587 333.5 896.1875 C332.34799313 897.49458472 331.20283321 898.80771854 330.0625 900.125 C327.32163634 903.27902995 324.49347309 906.26886373 321.5 909.1875 C320.97792969 909.71988281 320.45585938 910.25226562 319.91796875 910.80078125 C315.05463603 915.75193939 309.90749907 920.30206083 304.61328125 924.78515625 C303.72189453 925.54119141 303.72189453 925.54119141 302.8125 926.3125 C302.29300781 926.74820313 301.77351563 927.18390625 301.23828125 927.6328125 C298.89797782 929.72593782 296.71504325 931.96255342 294.5 934.1875 C285.41345474 942.99185441 275.63095657 950.63110095 265.5 958.1875 C264.10136108 959.23801314 262.70292028 960.2887901 261.3046875 961.33984375 C257.40083851 964.26725302 253.46589036 967.14872525 249.51171875 970.0078125 C247.48715651 971.47305988 245.46899483 972.94718802 243.45703125 974.4296875 C232.81688191 982.21690222 221.66605516 989.1855473 210.5 996.1875 C208.96086841 997.15614023 207.42180088 998.12488226 205.8828125 999.09375 C196.1262617 1005.22495888 186.34913031 1011.23106443 176.19921875 1016.6953125 C173.68742942 1018.08388489 171.25155654 1019.55085692 168.8125 1021.0625 C163.79103487 1024.12044351 158.57570522 1026.72021074 153.29614258 1029.29638672 C150.05345884 1030.88366933 146.88185176 1032.5187866 143.765625 1034.34375 C141.23155112 1035.77447114 139.19467546 1036.78120593 136.4375 1037.5625 C131.15710677 1039.205289 126.17385392 1041.44356492 121.125 1043.6875 C113.73932688 1046.7436406 106.39784555 1048.77615773 98.5625 1050.3125 C96.88622654 1050.64597278 95.21041822 1050.98179497 93.53515625 1051.3203125 C92.8069165 1051.46355957 92.07867676 1051.60680664 91.32836914 1051.75439453 C89.41745728 1052.13335315 89.41745728 1052.13335315 87.5 1053.1875 C85.33838869 1053.53324159 83.17039549 1053.83954581 81 1054.125 C75.99335497 1054.81328623 71.06393803 1055.62655296 66.11865234 1056.65820312 C55.93686961 1058.71620284 45.71693869 1059.88090911 35.375 1060.75 C34.61878357 1060.81375824 33.86256714 1060.87751648 33.08343506 1060.94320679 C9.67180627 1062.88517537 -13.53089141 1063.65497503 -37 1062.375 C-37.7510199 1062.33420319 -38.50203979 1062.29340637 -39.27581787 1062.25137329 C-54.01394914 1061.41896624 -68.93300019 1060.5271708 -83.25 1056.75 C-85.01790218 1056.3059877 -86.78613303 1055.863282 -88.5546875 1055.421875 C-89.39354492 1055.20982422 -90.23240234 1054.99777344 -91.09667969 1054.77929688 C-94.50809731 1053.93926474 -97.93530607 1053.21569003 -101.375 1052.5 C-104.70130069 1051.80425203 -107.91991498 1051.06650755 -111.1875 1050.125 C-113.94234881 1049.34532581 -116.507632 1048.84588547 -119.32421875 1048.3984375 C-126.28272741 1047.15259097 -132.90337399 1045.03241157 -139.625 1042.875 C-142.21140818 1042.05465492 -144.79910013 1041.23839255 -147.38671875 1040.421875 C-149.23595947 1039.83696289 -149.23595947 1039.83696289 -151.12255859 1039.24023438 C-155.20943227 1037.96637293 -159.3174459 1036.78557862 -163.4375 1035.625 C-170.95234392 1033.48466638 -178.2383309 1030.77694355 -185.56030273 1028.05834961 C-190.50187621 1026.23563454 -195.40971113 1024.55913473 -200.5 1023.1875 C-208.51847196 1021.01723094 -216.24021043 1018.08142518 -224.0234375 1015.19921875 C-228.10757499 1013.68776069 -232.20908465 1012.24616459 -236.33227539 1010.84545898 C-250.04470832 1006.15273145 -262.5722596 999.7138262 -275.25 992.75 C-276.38679199 992.12939697 -277.52358398 991.50879395 -278.69482422 990.86938477 C-285.20292816 987.24750405 -291.28263241 983.35580555 -297.22387695 978.86083984 C-299.56959027 977.13633924 -302.01899628 975.74980632 -304.57421875 974.359375 C-317.63090533 966.41412962 -329.16134738 955.54565267 -340.77783203 945.65087891 C-342.55466081 944.14105303 -344.3375854 942.63864564 -346.12109375 941.13671875 C-352.22695072 935.97456863 -358.10630344 930.74553661 -363.68359375 925.00390625 C-365.55678014 923.05858115 -365.55678014 923.05858115 -368.125 921.125 C-370.95941295 918.81271575 -373.19272944 916.21585169 -375.5625 913.4375 C-377.57691011 911.09818503 -379.65863038 908.83312987 -381.75 906.5625 C-386.90225061 900.86232565 -391.60104831 894.8298223 -396.28369141 888.74365234 C-397.43487672 887.27081911 -398.62847937 885.83142815 -399.82421875 884.39453125 C-401.5 882.1875 -401.5 882.1875 -401.5 880.1875 C-402.49 879.8575 -403.48 879.5275 -404.5 879.1875 C-405.859375 877.25390625 -405.859375 877.25390625 -407.25 874.75 C-409.3422749 871.10405563 -411.53408414 867.65427322 -414 864.25 C-417.04739044 859.97964367 -419.51196855 855.56025667 -421.95703125 850.92578125 C-424.01173503 847.27933227 -426.40235586 843.93810321 -428.88671875 840.57421875 C-430.5 838.1875 -430.5 838.1875 -431.87890625 835.35546875 C-433.83004793 831.54251477 -436.19554007 828.23936333 -438.75 824.8125 C-439.24161621 824.15056641 -439.73323242 823.48863281 -440.23974609 822.80664062 C-451.99396206 807.10347131 -463.10125734 799.03380242 -482.5 795.1875 C-483.77875 794.9296875 -485.0575 794.671875 -486.375 794.40625 C-495.36154907 792.6725141 -504.33839979 791.60431723 -513.45703125 790.83374023 C-517.55218239 790.48713727 -521.46999365 790.00112904 -525.5 789.1875 C-528.62014615 788.84227591 -531.74774382 788.58447302 -534.875 788.3125 C-568.73779752 785.14778003 -602.8020038 779.26752888 -634.8359375 767.52734375 C-637.62957837 766.50578851 -640.41955759 765.53588783 -643.25 764.625 C-666.79384646 756.8683772 -691.093379 747.01756358 -709.92382812 730.54882812 C-711.83955854 728.89422578 -713.84200505 727.38222039 -715.875 725.875 C-723.54911993 719.93965 -729.95829023 713.12962951 -735.5 705.1875 C-736.06460937 704.3934375 -736.62921875 703.599375 -737.2109375 702.78125 C-738.40911365 701.08601387 -739.59786601 699.38407978 -740.77734375 697.67578125 C-741.85535665 696.1186515 -742.94933747 694.57232227 -744.06640625 693.04296875 C-752.01372399 681.85862342 -755.54592991 669.36719734 -758.5 656.1875 C-758.6757959 655.5471582 -758.8515918 654.90681641 -759.03271484 654.24707031 C-762.07176711 640.85237602 -759.08098355 626.14663102 -755.5 613.1875 C-755.23445313 612.12015625 -754.96890625 611.0528125 -754.6953125 609.953125 C-750.51673554 594.59188018 -742.99319083 580.01203799 -734.49072266 566.63452148 C-729.92361087 559.423594 -726.16194895 551.88913475 -722.5 544.1875 C-721.84 544.1875 -721.18 544.1875 -720.5 544.1875 C-720.273125 543.506875 -720.04625 542.82625 -719.8125 542.125 C-717.14504404 536.15497952 -713.1528972 531.7269119 -708.5 527.1875 C-707.55455255 526.06917073 -706.6175622 524.94365673 -705.6875 523.8125 C-702.89250593 520.50150703 -699.80451819 517.74297933 -696.5078125 514.94140625 C-694.56118689 513.24094925 -692.74633356 511.47033469 -690.9375 509.625 C-688.14963242 506.78621246 -685.23939443 504.18170016 -682.17578125 501.64453125 C-680.41686721 500.15235122 -680.41686721 500.15235122 -678.58203125 498.24609375 C-676.44898835 496.13706259 -674.23012 494.29397896 -671.875 492.4375 C-670.99328125 491.73882813 -670.1115625 491.04015625 -669.203125 490.3203125 C-668.31109375 489.61648438 -667.4190625 488.91265625 -666.5 488.1875 C-661.22886483 484.00752338 -656.01131552 479.78254529 -650.875 475.4375 C-644.91022534 470.44515972 -638.72466887 465.79145997 -632.48046875 461.15625 C-627.72177121 457.62154715 -623.04289149 453.98715571 -618.3671875 450.34375 C-616.42894159 448.88610458 -614.44563009 447.48681961 -612.42578125 446.14453125 C-609.73894534 444.34732859 -607.29307704 442.44284945 -604.8125 440.375 C-600.45557412 436.84235739 -595.92469922 433.85477167 -591.16015625 430.90625 C-587.82767576 428.75310548 -584.76876493 426.33684818 -581.66796875 423.8671875 C-578.84907271 421.68317796 -575.91527942 419.7246935 -572.9296875 417.77734375 C-571.19391235 416.64155519 -569.47128458 415.48557025 -567.7578125 414.31640625 C-556.52478049 406.67377306 -545.37900988 400.31342236 -532.6640625 395.49121094 C-530.61472648 394.69480068 -528.58953988 393.8513906 -526.5625 393 C-525.91095947 392.75693115 -525.25941895 392.5138623 -524.58813477 392.26342773 C-521.87124968 391.08899095 -519.8848365 389.90777879 -518.47094727 387.26147461 C-517.66240951 384.92035444 -517.0506408 382.60192281 -516.5 380.1875 C-516.31526123 379.45619873 -516.13052246 378.72489746 -515.94018555 377.97143555 C-515.37389734 375.69437419 -514.84303924 373.41063435 -514.3125 371.125 C-512.15024319 362.10414705 -509.3131335 353.39417989 -506.30200195 344.62524414 C-504.60096479 339.63114763 -503.04304378 334.74385386 -502 329.5625 C-500.57128378 322.61374384 -498.01950392 316.10762635 -495.54296875 309.47875977 C-493.51135385 304.02716677 -491.64113213 298.58056276 -490 293 C-487.4282368 284.50618344 -483.93569608 276.46754205 -480.3996582 268.33813477 C-479.54474363 266.29445973 -478.7803409 264.23809387 -478.03515625 262.15234375 C-476.43243744 257.79979892 -474.28885938 253.81064677 -472.0625 249.75 C-468.46893571 243.10756129 -468.46893571 243.10756129 -465.3125 236.25 C-463.57203401 232.1440825 -461.33269419 228.43475478 -458.9921875 224.64453125 C-457.64188165 222.42112188 -456.40554101 220.17247736 -455.1875 217.875 C-452.38965138 212.77569526 -449.04009483 208.07169658 -445.6953125 203.32421875 C-443.8897939 200.74444752 -442.14904436 198.14213814 -440.4375 195.5 C-437.68254152 191.33322069 -434.60384409 187.47904876 -431.44921875 183.609375 C-429.67407916 181.40379074 -427.98328525 179.15998137 -426.3125 176.875 C-423.94647989 173.68629365 -421.34678135 170.96311182 -418.5 168.1875 C-417.5125422 167.02784248 -416.53384692 165.86068525 -415.5625 164.6875 C-412.8297955 161.44459747 -409.75956358 158.90380298 -406.5 156.1875 C-405.52116435 155.08029246 -404.56358775 153.95402565 -403.625 152.8125 C-400.9924371 149.6547711 -398.15198266 147.04783139 -395.01953125 144.39453125 C-392.34246303 142.0495025 -389.77209708 139.61381728 -387.1953125 137.15991211 C-380.30101946 130.61258337 -373.21813179 124.75530651 -365.5 119.1875 C-364.26279261 118.24851198 -363.02857618 117.30557416 -361.796875 116.359375 C-352.93383214 109.56642761 -343.8293848 103.33191897 -334.38330078 97.37890625 C-332.70471048 96.31700313 -331.03709405 95.23779826 -329.37109375 94.15625 C-324.08860176 90.72976871 -318.71824783 87.60937102 -313.1640625 84.64453125 C-310.6585745 83.2742277 -308.23864452 81.8176833 -305.8125 80.3125 C-299.57650998 76.52742206 -293.03202469 73.37885401 -286.48876953 70.16796875 C-283.54438551 68.71637947 -280.61747704 67.23040945 -277.6875 65.75 C-275.29402997 64.55736808 -272.8990319 63.36881887 -270.5 62.1875 C-269.75282715 61.81947266 -269.0056543 61.45144531 -268.23583984 61.07226562 C-259.75947473 56.9190355 -251.46611044 52.95734194 -242.41796875 50.19921875 C-238.9972596 49.01318974 -235.80533044 47.46860475 -232.5625 45.875 C-225.59716742 42.47700887 -218.43447576 40.04813506 -211.06445312 37.67919922 C-206.29529775 36.1402844 -201.65991952 34.50983447 -197.0625 32.5 C-192.11453714 30.3568016 -187.15047209 28.90415047 -181.953125 27.48828125 C-170.47272755 24.23770762 -159.21298836 20.13127705 -147.91162109 16.31298828 C-141.16713521 14.04585049 -134.3650119 12.05977597 -127.5 10.1875 C-126.53964844 9.91808594 -125.57929687 9.64867187 -124.58984375 9.37109375 C-107.66578778 5.02049524 -89.79773055 4.14637356 -72.4375 2.5625 C-71.76989655 2.50006104 -71.10229309 2.43762207 -70.41445923 2.37329102 C-46.9878472 0.20208449 -23.51096233 -0.01777985 0 0 Z M-47.43701172 111.71142578 C-50.26820276 112.15147221 -53.09920773 112.54123831 -55.94140625 112.90234375 C-70.03504683 114.69951939 -83.72130187 117.74786892 -97.5 121.1875 C-98.58506836 121.45578613 -99.67013672 121.72407227 -100.78808594 122.00048828 C-116.12037362 125.83012247 -130.9496358 130.56369959 -145.72900391 136.15551758 C-147.51489505 136.82062435 -149.30856958 137.46536546 -151.11083984 138.0847168 C-158.74343383 140.72087661 -165.94068389 144.09211175 -173.18994141 147.62329102 C-175.25657609 148.62819764 -177.32908894 149.62016469 -179.40234375 150.61132812 C-185.81497063 153.70359117 -191.82564495 156.84552114 -197.5 161.1875 C-198.97670038 161.9627677 -200.4755688 162.69839557 -202 163.375 C-209.29448587 166.9060182 -215.83830165 171.60650764 -222.5 176.1875 C-223.69004409 177.00008799 -224.88014632 177.81259084 -226.0703125 178.625 C-231.26404484 182.1836134 -236.41501998 185.78721587 -241.421875 189.60546875 C-243.02772341 190.82796613 -244.64447108 192.03615441 -246.265625 193.23828125 C-252.24687675 197.67821043 -258.09075297 202.23753823 -263.828125 206.98828125 C-267.24650956 209.80195158 -270.72442234 212.53704792 -274.2109375 215.265625 C-276.79991638 217.43930693 -279.13717166 219.77022861 -281.5 222.1875 C-287.13654278 227.89987071 -292.75564567 233.498612 -298.8671875 238.70703125 C-301.01971489 240.65872474 -302.69440766 242.91594835 -304.5 245.1875 C-305.69487141 246.20354712 -306.90440574 247.20250299 -308.125 248.1875 C-311.09744142 250.6361354 -312.18451893 252.54462934 -313.5 256.1875 C-314.32564453 256.55681641 -314.32564453 256.55681641 -315.16796875 256.93359375 C-318.65296066 258.80743362 -320.97787919 261.59591497 -323.625 264.5 C-324.20048584 265.12737061 -324.77597168 265.75474121 -325.36889648 266.40112305 C-334.94524941 276.97111059 -343.04437578 288.63678804 -351.19140625 300.31640625 C-352.28689356 301.88278959 -353.39226803 303.44225191 -354.5 305 C-366.46703797 321.84249789 -376.49957834 339.61198187 -385.5 358.1875 C-385.87157227 358.94998047 -386.24314453 359.71246094 -386.62597656 360.49804688 C-391.68763812 370.91036495 -396.40890351 381.35389259 -400.5 392.1875 C-400.92925781 393.29996094 -401.35851562 394.41242188 -401.80078125 395.55859375 C-405.14805687 404.52266005 -407.57082762 413.64059987 -409.91357422 422.90380859 C-410.45469772 425.01108138 -411.01864781 427.10989733 -411.59765625 429.20703125 C-415.33656701 442.78368439 -417.96101478 456.21994382 -419.1875 470.25 C-419.25003967 470.95637604 -419.31257935 471.66275208 -419.37701416 472.39053345 C-423.82447491 524.3897985 -420.09566696 577.50689566 -407.03125 628.06152344 C-406.46374292 630.33259495 -405.95310518 632.61159631 -405.453125 634.8984375 C-404.73199462 638.19350356 -403.92165007 641.44168889 -403 644.6875 C-402.05140969 648.07127738 -401.23325147 651.42626897 -400.5625 654.875 C-398.75245064 662.91966383 -396.02430169 667.45374774 -389.01171875 671.9609375 C-381.83397902 675.46608567 -375.13010444 675.57277393 -367.25 675.5625 C-365.99018311 675.56161377 -364.73036621 675.56072754 -363.43237305 675.55981445 C-350.02677612 675.44850368 -336.67244319 674.4129258 -323.3125 673.375 C-321.68326599 673.25097809 -321.68326599 673.25097809 -320.02111816 673.12445068 C-308.8604515 672.26216379 -297.81654953 671.21239617 -286.77783203 669.3404541 C-276.99382909 667.70910186 -267.12921238 666.77400996 -257.2678833 665.73937988 C-239.00151282 663.81313976 -220.78618408 661.6924818 -202.625 658.9375 C-201.3821373 658.75059097 -201.3821373 658.75059097 -200.11416626 658.55990601 C-190.63114552 657.16345187 -190.63114552 657.16345187 -181.27001953 655.13500977 C-177.26198671 654.1276807 -173.35193211 653.70883612 -169.25 653.375 C-152.37097583 651.78425289 -135.43077037 648.83728324 -119.13671875 644.13671875 C-114.74849422 642.99134973 -110.33924777 642.2214019 -105.875 641.4375 C-95.76042775 639.63390831 -85.97076369 636.92087946 -76.09472656 634.11254883 C-69.30372225 632.19457799 -62.5539589 630.45847229 -55.625 629.125 C-47.81922405 627.61078793 -40.35470997 625.37352599 -32.77929688 622.97338867 C-23.43249497 620.0606752 -13.96791411 617.78749993 -4.43408203 615.5847168 C6.31610943 613.22806327 6.31610943 613.22806327 16.49316406 609.15625 C18.53130178 608.17238985 20.29256561 607.69809816 22.5078125 607.265625 C28.20162111 606.07059943 33.77663453 604.51435203 39.375 602.9375 C41.01722534 602.47670044 41.01722534 602.47670044 42.69262695 602.0065918 C50.17730131 599.88876111 57.60772554 597.63632995 65.01123047 595.25146484 C69.65193171 593.7582646 74.30347441 592.37019998 79 591.0625 C82.9305975 589.96139117 86.74988404 588.76833458 90.5625 587.3125 C94.06503561 585.98040496 97.56451651 584.87623342 101.18359375 583.91796875 C112.89171716 580.81217955 123.46690678 576.83759432 134.25537109 571.33105469 C136.46940136 570.20308886 138.69475288 569.10171686 140.92578125 568.0078125 C147.25763144 564.89337176 153.50861145 561.67955578 159.64453125 558.19140625 C161.84473326 557.00098116 164.12756054 556.0669383 166.44140625 555.12109375 C170.44165789 553.30693788 174.25268426 551.11253363 178.10546875 549.0078125 C181.20607028 547.34511939 184.33458746 545.78449138 187.5 544.25 C191.78795291 542.13415972 195.82874423 539.79727966 199.875 537.25 C204.38076478 534.41703412 208.91043971 531.88950348 213.6875 529.5625 C218.54327503 527.19070229 223.17646537 524.66379445 227.77734375 521.8359375 C240.85772226 513.91639699 254.47708834 506.92629807 268.03320312 499.86865234 C270.54421357 498.56063366 273.05385675 497.25005268 275.5625 495.9375 C276.76277832 495.30992798 276.76277832 495.30992798 277.98730469 494.66967773 C282.09747987 492.50540552 286.11567489 490.26693186 290.0625 487.8125 C293.77024262 485.53325411 297.46497285 483.85065002 301.53515625 482.3203125 C303.89869965 481.41724585 306.22754758 480.47396298 308.55859375 479.4921875 C321.37147426 474.10365942 321.37147426 474.10365942 327.0625 472.6875 C333.42184633 470.9481916 337.90664673 466.57752991 341.5 461.1875 C341.78019979 458.31575505 341.78019979 458.31575505 341.6875 455.1875 C341.67783203 453.6096875 341.67783203 453.6096875 341.66796875 452 C341.61707549 449.10687878 341.61707549 449.10687878 340.5 446.1875 C340.34513275 444.08532054 340.22514816 441.98049583 340.125 439.875 C339.72354805 433.7340397 338.69909878 428.02565715 337.3046875 422.04296875 C336.56014997 418.47569426 336.04043557 414.95802217 335.57397461 411.34838867 C333.85856094 398.25203913 330.30810605 385.81234742 326.5 373.1875 C326.27602539 372.44193848 326.05205078 371.69637695 325.82128906 370.92822266 C325.00579008 368.22529213 324.17642695 365.52752719 323.32421875 362.8359375 C322.71753298 360.88649223 322.15031299 358.92465653 321.60546875 356.95703125 C320.27180361 352.40937451 318.71227995 347.96422485 317.125 343.5 C316.53288697 341.82976965 315.94175254 340.15919208 315.3515625 338.48828125 C315.04782715 337.6286377 314.7440918 336.76899414 314.43115234 335.88330078 C313.46392816 333.08306759 312.55261414 330.2678807 311.640625 327.44921875 C309.50997998 321.03104929 307.00225463 314.79162076 304.40087891 308.55126953 C303.62674804 306.69169904 302.86182919 304.82852498 302.09765625 302.96484375 C297.67457649 292.29741609 292.66681112 281.99827323 287 271.9375 C286.61618164 271.25421631 286.23236328 270.57093262 285.83691406 269.86694336 C283.43512464 265.65575892 280.8616848 261.75908653 277.82421875 257.97265625 C276.33682275 255.96752359 275.21875327 253.8989747 274.0625 251.6875 C271.90455079 247.63698046 269.29256033 244.43844623 266.1484375 241.109375 C264.28791965 238.94024045 262.96609303 236.6383929 261.5 234.1875 C260.15590257 232.45474789 258.77839727 230.74758275 257.375 229.0625 C256.57578125 228.09828125 255.7765625 227.1340625 254.953125 226.140625 C254.14359375 225.16609375 253.3340625 224.1915625 252.5 223.1875 C251.04050863 221.39677654 249.58215989 219.60512116 248.125 217.8125 C244.23868403 213.05876378 240.28695941 208.36371993 236.30517578 203.68994141 C232.56824243 199.29735738 228.95621493 194.8503327 225.5625 190.1875 C223.09481278 186.89111185 220.48676026 184.03534118 217.5 181.1875 C216.76007812 180.42695313 216.02015625 179.66640625 215.2578125 178.8828125 C214.45085938 178.05523437 213.64390625 177.22765625 212.8125 176.375 C212.04550781 175.58480469 211.27851562 174.79460937 210.48828125 173.98046875 C208.6986717 171.96427004 208.6986717 171.96427004 206.5 172.1875 C206.22800781 171.58164062 205.95601562 170.97578125 205.67578125 170.3515625 C203.75706907 166.82011218 200.59817162 164.65028388 197.5 162.1875 C196.53320312 161.40761719 195.56640625 160.62773437 194.5703125 159.82421875 C187.55063107 154.23935763 180.35284945 149.55019414 172.5 145.1875 C170.97052734 144.26904297 170.97052734 144.26904297 169.41015625 143.33203125 C152.45690505 133.23265093 134.05646068 125.78624141 115.5 119.1875 C114.7265625 118.90922363 113.953125 118.63094727 113.15625 118.34423828 C62.91296209 100.52464751 4.45030365 103.33743111 -47.43701172 111.71142578 Z M463.1875 288.4375 C462.03417175 288.53437607 462.03417175 288.53437607 460.85754395 288.63320923 C446.30094135 289.86479746 431.91045862 291.7728443 417.5 294.1875 C416.18481143 298.13306571 417.1392402 299.78147287 418.484375 303.69140625 C418.70063538 304.32932602 418.91689575 304.96724579 419.13970947 305.62449646 C419.83471334 307.66932299 420.54187491 309.70968449 421.25 311.75 C422.1645209 314.41692508 423.07480247 317.08528984 423.984375 319.75390625 C424.20581177 320.40316071 424.42724854 321.05241516 424.65539551 321.72134399 C427.22891608 329.29224597 429.46562662 336.70402275 430.95019531 344.56152344 C431.76641155 348.45993456 432.8747325 352.26391658 433.9621582 356.09399414 C437.33172871 367.97445629 439.84511127 379.76462946 441.67578125 391.97265625 C442.50796612 400.78938973 442.50796612 400.78938973 446.5 408.1875 C452.83283647 408.82078365 455.26720639 408.04676904 460.5 404.1875 C462.20475016 402.74936953 463.89136178 401.2895543 465.5625 399.8125 C473.54606216 392.94085827 482.48603737 387.37303282 491.30859375 381.65454102 C493.43108749 380.23363361 495.45881903 378.72172623 497.5 377.1875 C498.29148437 376.71570313 499.08296875 376.24390625 499.8984375 375.7578125 C509.03146528 370.24508402 517.35273814 363.04078497 525.5 356.1875 C526.3559375 355.49140625 527.211875 354.7953125 528.09375 354.078125 C538.20351235 345.52851116 548.34752134 332.92374855 549.796875 319.421875 C550.13718999 312.04838346 549.01128055 306.15627119 544.5 300.1875 C539.86703336 295.29536285 535.4434381 292.97441699 528.9375 291.4375 C528.12176514 291.23487549 527.30603027 291.03225098 526.46557617 290.82348633 C505.72161853 285.99780529 484.25642756 286.60845366 463.1875 288.4375 Z M-557.1484375 542.4765625 C-558.87268159 543.73107896 -560.63709591 544.93086885 -562.421875 546.09765625 C-567.76623803 549.72612607 -572.57826926 554.01543686 -577.5 558.1875 C-578.21542969 558.765 -578.93085937 559.3425 -579.66796875 559.9375 C-590.51047184 568.87977059 -598.18555625 580.35403357 -605.5 592.1875 C-606.18191406 593.18910156 -606.86382813 594.19070313 -607.56640625 595.22265625 C-609.4660029 598.13537111 -610.9815844 601.06229541 -612.5 604.1875 C-614.31278862 607.52018127 -616.14202143 610.84331094 -617.9765625 614.1640625 C-621.5992274 621.353659 -621.72744791 630.72716188 -619.96875 638.55078125 C-615.34923026 649.87362584 -602.9160954 657.42273462 -592.20556641 662.21386719 C-586.36485532 664.61234279 -580.43910706 666.56537159 -574.375 668.3125 C-573.55257812 668.56386719 -572.73015625 668.81523438 -571.8828125 669.07421875 C-557.23836937 673.31223184 -541.63027194 673.73567067 -526.5 674.8125 C-524.64580582 674.94753935 -522.79163892 675.08295391 -520.9375 675.21875 C-516.45863495 675.54597698 -511.97943545 675.86818024 -507.5 676.1875 C-508.52614001 670.19179492 -509.63743396 664.33736029 -511.375 658.5 C-518.53463031 632.82559261 -522.32632261 603.44662576 -522.78125 576.8046875 C-522.79965942 575.94674591 -522.81806885 575.08880432 -522.83703613 574.2048645 C-522.89506191 571.49080407 -522.94810263 568.77668404 -523 566.0625 C-523.23834652 553.74421701 -523.60614724 541.47797545 -524.5 529.1875 C-536.88980169 528.97498196 -547.40638528 535.34578201 -557.1484375 542.4765625 Z M314.46875 626.1640625 C313.74768066 626.58478027 313.02661133 627.00549805 312.28369141 627.43896484 C311.53007324 627.89223145 310.77645508 628.34549805 310 628.8125 C299.49045306 634.8861575 288.90899632 639.50811098 277.32421875 643.203125 C274.63736651 644.13962122 272.17812406 645.2498216 269.625 646.5 C263.39235446 649.43300967 256.89531498 651.35440866 250.32861328 653.38330078 C243.47238867 655.51688519 236.72992386 657.87308066 230 660.375 C222.87745523 663.01948136 215.80503961 665.34167382 208.46875 667.32421875 C204.80915886 668.38838933 201.35719268 669.78807059 197.84375 671.25390625 C192.92681756 673.21248434 187.80975089 674.56079836 182.70703125 675.9453125 C173.22465683 678.56032756 163.94028916 681.68534869 154.62133789 684.82739258 C147.44147314 687.23796449 140.24563511 689.50259475 132.96362305 691.58129883 C127.36890444 693.18938283 121.94630355 695.14293297 116.5 697.1875 C112.05642839 698.78187121 107.69403056 700.19220488 103.0625 701.125 C98.82301542 702.00822595 95.02611369 703.51327292 91.0390625 705.1796875 C87.72835253 706.49378469 84.36188055 707.48382469 80.94140625 708.46875 C77.89316859 709.36615117 74.89737982 710.39236912 71.8984375 711.44140625 C69.99127324 712.03467722 68.05140302 712.52256098 66.10546875 712.97265625 C60.39502694 714.37506968 54.8997165 716.42362993 49.3616333 718.38287354 C40.08260776 721.66033426 30.85868249 724.77602896 21.296875 727.1328125 C15.04188794 728.87030891 8.9574311 731.09654948 2.83984375 733.26171875 C-2.206245 735.04622961 -7.24544403 736.77878854 -12.375 738.3125 C-17.79099398 739.93236816 -23.1074495 741.78797496 -28.42675781 743.69580078 C-34.79168362 745.96697957 -41.20472827 748.07875385 -47.625 750.1875 C-54.36525198 752.40410705 -61.01634389 754.69837841 -67.5625 757.4375 C-77.96711687 761.71289379 -88.70416509 764.15943447 -99.7434082 766.11401367 C-103.60033377 766.80203112 -107.35060952 767.64236748 -111.125 768.6875 C-117.27833762 770.27888042 -123.46129467 771.04829043 -129.75415039 771.8515625 C-139.06389329 773.06757905 -148.3074075 774.61783154 -157.5625 776.1875 C-169.14579816 778.14885528 -180.72687227 780.00920005 -192.3671875 781.60546875 C-195.8015881 782.07829858 -199.21179132 782.6408306 -202.625 783.25 C-208.25239026 784.21560002 -213.89821666 784.794189 -219.57617188 785.36523438 C-227.65842718 786.18296844 -235.72014439 787.15295637 -243.78393555 788.13452148 C-245.77789426 788.37709281 -247.77211062 788.61755732 -249.76660156 788.85571289 C-251.45218368 789.06031329 -253.13675189 789.27376312 -254.81933594 789.50170898 C-262.08286255 790.43617393 -269.30857426 790.21166482 -276.6171875 790.06054688 C-285.19553883 789.96777844 -293.8480488 790.15433496 -300.5 796.1875 C-303.88517808 800.89080051 -304.88472377 805.13631207 -304.1875 810.875 C-300.7634237 826.44077213 -289.84793988 842.81779651 -278.1953125 853.59765625 C-276.5 855.1875 -276.5 855.1875 -274 858.25 C-271.47537559 861.21643369 -268.81437816 863.66631261 -265.85546875 866.18359375 C-264.47123855 867.36122243 -263.09464144 868.54812431 -261.73681641 869.75610352 C-236.70144852 891.99311303 -205.49032459 908.34732534 -174.41748047 920.43164062 C-172.50776481 921.18443916 -170.61460299 921.96932629 -168.72265625 922.765625 C-160.84079383 926.05875308 -152.93278327 928.63706842 -144.72265625 930.9609375 C-140.58303966 932.14096176 -136.51110705 933.48638678 -132.4375 934.875 C-123.17152584 937.99288826 -114.17233684 939.78641225 -104.5 941.1875 C-102.95688782 941.42746488 -101.41392768 941.66840883 -99.87109375 941.91015625 C-89.06005678 943.5691873 -78.28865125 944.69242339 -67.38012695 945.48608398 C-61.85417005 945.89428776 -56.41484043 946.41582497 -50.9375 947.25 C-32.67628931 949.84705908 -13.85198721 949.45744437 4.55029297 949.22460938 C6.3356909 949.20214782 8.12120435 949.18598763 9.90673828 949.18164062 C24.15154283 949.11628249 37.74089144 945.56568997 51.5 942.1875 C52.80300049 941.8778833 52.80300049 941.8778833 54.13232422 941.56201172 C66.87684338 938.51080376 78.6154333 933.66060132 90.5 928.1875 C91.48323242 927.73503906 92.46646484 927.28257812 93.47949219 926.81640625 C104.45644093 921.73115954 115.17875913 916.50634733 125.5 910.1875 C126.84311977 909.40682228 128.18834158 908.62975465 129.53515625 907.85546875 C137.41348976 903.3148587 145.02133506 898.60162928 152.4453125 893.34375 C155.49150511 891.1934964 158.57789419 889.11974557 161.6875 887.0625 C178.99272983 875.57110066 196.41951452 863.53613839 211.5 849.1875 C212.03238281 848.68234863 212.56476562 848.17719727 213.11328125 847.65673828 C221.21977909 839.9139349 228.48368777 831.86487833 235.20751953 822.89892578 C236.49297941 821.19679624 237.80206631 819.51605654 239.12109375 817.83984375 C243.82610623 811.84655404 248.26517801 805.73471226 252.43359375 799.3515625 C253.92917328 797.0615447 255.43927892 794.78780925 256.97265625 792.5234375 C261.70160428 785.53172772 266.24580794 778.49994252 270.39355469 771.14257812 C271.76499558 768.71925539 273.15275937 766.30547561 274.5390625 763.890625 C280.87506389 752.81554565 287.01024884 741.70702519 292.5 730.1875 C293.00007568 729.14021729 293.00007568 729.14021729 293.51025391 728.07177734 C295.5595501 723.7683515 297.58160455 719.45285882 299.59033203 715.13037109 C300.41038908 713.37889122 301.24900159 711.63612815 302.08984375 709.89453125 C306.14837623 701.40067945 309.42467067 692.70585021 312.54394531 683.83447266 C313.5197106 681.13292842 314.563993 678.46517478 315.6171875 675.79296875 C322.05030158 658.84052724 323.49410981 642.13469862 324.5 624.1875 C320.51748167 624.00847066 317.90191482 624.1008457 314.46875 626.1640625 Z " fill="#FFFFFF" transform="translate(1066.5,233.8125)"/>
<path d="M0 0 C0.71542969 0.51433594 1.43085937 1.02867188 2.16796875 1.55859375 C2.68931396 1.92927979 3.21065918 2.29996582 3.74780273 2.68188477 C6.98901193 5.57778585 8.06484699 7.80957465 8.6628418 12.15307617 C8.87276766 16.5629745 8.73939684 20.96079989 8.60546875 25.37109375 C8.58390746 26.89254249 8.56500577 28.41403136 8.54882812 29.93554688 C8.45450518 36.65786332 8.17527199 43.31551097 7.40649414 49.99829102 C6.92362523 55.18134761 6.86105038 60.39079929 6.72296143 65.59246826 C6.62968516 69.03333774 6.51914097 72.4736607 6.41015625 75.9140625 C6.36858398 77.23325684 6.32701172 78.55245117 6.28417969 79.91162109 C6.24583008 81.11512207 6.20748047 82.31862305 6.16796875 83.55859375 C6.13735352 84.53135254 6.10673828 85.50411133 6.07519531 86.50634766 C5.40713983 106.0338345 5.40713983 106.0338345 0.484375 111.390625 C-4.41516766 115.74011505 -7.72337659 116.98919396 -14.29296875 116.89453125 C-18.38525128 116.35309079 -20.15854592 114.61400556 -22.83203125 111.55859375 C-29.38227178 101.30146469 -28.22235071 90.1451171 -26.83203125 78.55859375 C-31.90454039 78.62741349 -36.97622064 78.71535069 -42.0480957 78.82104492 C-43.77358818 78.85430547 -45.49918974 78.88233394 -47.22485352 78.9050293 C-49.70506291 78.93855528 -52.18427155 78.99086781 -54.6640625 79.046875 C-55.4360347 79.05326492 -56.2080069 79.05965485 -57.00337219 79.0662384 C-61.14759742 79.15731473 -61.14759742 79.15731473 -64.8034668 80.91650391 C-66.35535761 83.39407751 -66.50159543 85.73322235 -66.83203125 88.62109375 C-67.865376 96.28150899 -69.11778227 104.20460599 -73.83203125 110.55859375 C-78.22768016 112.75641821 -84.03455129 111.88037594 -88.83203125 111.55859375 C-95.67528734 109.23677472 -100.50785827 103.86305975 -103.83203125 97.55859375 C-105.24062598 92.37207571 -106.44735255 87.64761361 -104.90307617 82.40478516 C-103.7366973 78.21624337 -103.21662145 74.23441793 -102.796875 69.921875 C-102.71329239 69.12001266 -102.62970978 68.31815033 -102.54359436 67.49198914 C-102.27966245 64.95225736 -102.02405864 62.41178379 -101.76953125 59.87109375 C-101.51024066 57.31983804 -101.24912537 54.76879794 -100.98475647 52.21806335 C-100.82124017 50.63686103 -100.66081371 49.05533527 -100.50389099 47.47346497 C-99.94353248 42.00433978 -99.94353248 42.00433978 -99.31283569 39.48301697 C-98.69850602 37.02415806 -98.68663559 34.73237114 -98.65625 32.19921875 C-98.63240234 31.16539063 -98.60855469 30.1315625 -98.58398438 29.06640625 C-98.54132862 26.91035173 -98.50990944 24.75404293 -98.49023438 22.59765625 C-98.30993258 15.83843537 -97.49535781 11.29713809 -93.83203125 5.55859375 C-87.50872742 1.34305787 -80.00459431 1.77003604 -72.6796875 2.88671875 C-68.83365291 4.06493503 -67.04784131 6.31138412 -65.16015625 9.65234375 C-61.69230143 16.87969953 -62.28988861 24.37921012 -62.51953125 32.18359375 C-62.54466551 33.6796499 -62.56746957 35.17574709 -62.58789062 36.671875 C-62.6424345 40.30164805 -62.72841664 43.92985076 -62.83203125 47.55859375 C-57.01893986 49.58641633 -52.03636122 50.68784672 -45.875 50.65625 C-44.76318359 50.65302734 -43.65136719 50.64980469 -42.50585938 50.64648438 C-40.78012695 50.63391602 -40.78012695 50.63391602 -39.01953125 50.62109375 C-37.26479492 50.61432617 -37.26479492 50.61432617 -35.47460938 50.60742188 C-32.59369767 50.59566305 -29.71289081 50.57922801 -26.83203125 50.55859375 C-25.67021315 48.23495754 -25.72237337 46.93989548 -25.75024414 44.35595703 C-25.76004051 43.05418015 -25.76004051 43.05418015 -25.77003479 41.72610474 C-25.78147018 40.78652924 -25.79290558 39.84695374 -25.8046875 38.87890625 C-25.8173352 36.89843926 -25.82969606 34.91797041 -25.84179688 32.9375 C-25.8666182 29.80804732 -25.89458358 26.6786898 -25.92797852 23.54931641 C-25.95817274 20.53417346 -25.97595521 17.51915213 -25.9921875 14.50390625 C-26.01237694 13.10061569 -26.01237694 13.10061569 -26.03297424 11.66897583 C-26.036353 10.79482025 -26.03973175 9.92066467 -26.04321289 9.02001953 C-26.05067032 8.25327911 -26.05812775 7.4865387 -26.06581116 6.69656372 C-25.79542939 4.22386145 -25.14289132 2.66506537 -23.83203125 0.55859375 C-16.63368155 -4.60945219 -7.70604083 -3.35369282 0 0 Z " fill="#FFFFFF" transform="translate(986.83203125,1695.44140625)"/>
<path d="M0 0 C3.39247108 2.72894365 6.23532926 5.64249265 9 9 C9.57363281 9.68707031 10.14726563 10.37414063 10.73828125 11.08203125 C18.45139195 21.39807757 20.50827904 34.53615939 18.70263672 47.06298828 C15.32399213 67.46672751 6.44570971 88.29831268 -10.0625 101.4375 C-17.77071927 105.53761663 -24.02886363 106.55437988 -32.6875 106.5 C-34.28489014 106.49033203 -34.28489014 106.49033203 -35.91455078 106.48046875 C-50.38913733 106.14462122 -59.96226461 100.96698068 -70.21875 90.80078125 C-72.26856854 88.60946404 -74.15621292 86.36646779 -76 84 C-76.495 83.37222656 -76.99 82.74445313 -77.5 82.09765625 C-88.63820173 65.35720424 -83.79998556 39.56543086 -80.45068359 20.94628906 C-78.32472562 10.8116357 -75.31731434 1.49017656 -67.1875 -5.375 C-46.38109005 -15.98218939 -19.29155351 -12.34951721 0 0 Z M-47.203125 22.65625 C-49.34147149 26.6354339 -50.12176983 30.06480633 -50.75 34.5 C-50.87068848 35.315896 -50.99137695 36.13179199 -51.11572266 36.97241211 C-51.98645373 43.49550567 -52.31434643 49.98495721 -52.375 56.5625 C-52.38885742 57.45324219 -52.40271484 58.34398437 -52.41699219 59.26171875 C-52.36569185 66.49776696 -51.49298418 73.93719087 -46.8125 79.6875 C-42.97489361 81.47838298 -40.00450352 81.26657592 -36 80 C-26.96544987 75.595305 -23.14571425 65.0049272 -19.99365234 56.02099609 C-19.68637207 55.10656738 -19.3790918 54.19213867 -19.0625 53.25 C-18.62091553 51.93829834 -18.62091553 51.93829834 -18.17041016 50.60009766 C-15.23228443 41.37072111 -13.27284346 31.78157187 -17.5625 22.6875 C-21.48878365 18.35852059 -25.38592706 17.24411576 -31.01171875 16.71875 C-38.1919531 16.50678736 -42.40941438 16.87659889 -47.203125 22.65625 Z " fill="#FFFFFF" transform="translate(1350,1706)"/>
<path d="M0 0 C0.81871232 3.06009845 1.07997371 5.63854355 1 8.8125 C0.96123562 11.78012901 1.05389034 14.31136638 1.5625 17.25 C1.97371248 20.77467837 1.8690684 23.72175173 1.5859375 27.24609375 C1.18753397 32.43977208 0.83332982 37.63159991 0.53515625 42.83203125 C0.41686127 44.82349306 0.29856553 46.81495484 0.17993164 48.80639648 C0.10112765 50.15261761 0.02466007 51.49897739 -0.04956055 52.84545898 C-1.22097234 73.94865844 -7.48248758 89.72996681 -23.0078125 104.3984375 C-26.78409058 107.68172889 -30.49037831 109.90808423 -35 112 C-35.59554687 112.37640625 -36.19109375 112.7528125 -36.8046875 113.140625 C-45.03360703 118.15567467 -56.79838522 118.00274404 -66 116 C-80.79578341 110.99038936 -91.57289366 101.26168303 -100.0625 88.4375 C-100.5160083 87.75373291 -100.9695166 87.06996582 -101.43676758 86.36547852 C-112.45965226 68.73346723 -111.58937402 45.00035498 -111 25 C-110.97921387 24.13133301 -110.95842773 23.26266602 -110.93701172 22.36767578 C-110.54914164 7.72342554 -110.54914164 7.72342554 -107 3 C-100.76906241 -0.11546879 -88.26496117 1.24348543 -81.625 3.0625 C-78.39591357 4.47086383 -76.12014814 6.23221828 -74.578125 9.51953125 C-72.85849114 16.89769006 -73.60756763 24.95286127 -74.5078125 32.41796875 C-75.78261828 43.26371361 -76.28352956 55.4964367 -73 66 C-72.731875 66.85980469 -72.46375 67.71960937 -72.1875 68.60546875 C-70.26615542 74.02526158 -68.08153224 78.94208679 -63 82 C-58.4961108 83.44650456 -54.92869171 83.24017889 -50.375 82.0625 C-41.92550815 76.89892165 -36.81635276 68.3342709 -34 59 C-32.33348648 51.77054855 -31.7090177 44.77266673 -31.69140625 37.37109375 C-31.66629351 35.41080371 -31.64089497 33.45051732 -31.61523438 31.49023438 C-31.58629762 28.44198216 -31.56223427 25.39379259 -31.54370117 22.34545898 C-31.52217455 19.37454886 -31.48280766 16.4042833 -31.44140625 13.43359375 C-31.44129044 12.51597763 -31.44117462 11.59836151 -31.4410553 10.65293884 C-31.42771652 9.80768143 -31.41437775 8.96242401 -31.40063477 8.09155273 C-31.39556412 7.34751694 -31.39049347 6.60348114 -31.38526917 5.8368988 C-31 4 -31 4 -28 2 C-19.0977711 -1.04896635 -9.26271623 -0.18162189 0 0 Z " fill="#FFFFFF" transform="translate(983,1437)"/>
<path d="M0 0 C0.70253906 0.55300781 1.40507813 1.10601563 2.12890625 1.67578125 C2.75925781 2.15660156 3.38960937 2.63742187 4.0390625 3.1328125 C16.38918175 13.8543446 18.57255314 34.982849 22.18359375 50.078125 C25.93595834 66.40998157 25.93595834 66.40998157 32.27734375 81.828125 C34.25379736 86.11648536 33.79859874 91.10752179 33.12890625 95.67578125 C31.02079586 100.10901339 27.76168322 102.67125644 23.31640625 104.61328125 C19.02151087 105.95130635 14.58568332 106.35264877 10.12890625 105.67578125 C8.64390625 104.68578125 8.64390625 104.68578125 7.12890625 103.67578125 C7.12890625 103.01578125 7.12890625 102.35578125 7.12890625 101.67578125 C6.46890625 101.67578125 5.80890625 101.67578125 5.12890625 101.67578125 C2.40491526 95.8386577 0.71850957 89.91018293 -0.87109375 83.67578125 C-11.20737979 81.98855865 -21.42056866 81.15655601 -31.87109375 80.67578125 C-32.1546875 81.24941406 -32.43828125 81.82304688 -32.73046875 82.4140625 C-45.7935851 108.3166117 -45.7935851 108.3166117 -58.87109375 112.67578125 C-66.11296978 112.5589768 -72.13993038 110.40694462 -77.30859375 105.23828125 C-79.86747212 101.04172072 -80.07577322 98.79221473 -79.18359375 93.92578125 C-77.41802599 87.68198534 -74.76064333 82.00742363 -71.31640625 76.51953125 C-66.62015349 68.75870186 -62.6123766 60.62825937 -58.49609375 52.55078125 C-57.67608233 50.94906457 -56.85577146 49.34750117 -56.03515625 47.74609375 C-52.16852889 40.19172489 -48.33164028 32.62307386 -44.5390625 25.03125 C-44.20813095 24.3692308 -43.8771994 23.70721161 -43.53623962 23.02513123 C-42.20950698 20.36825018 -40.88753634 17.70937646 -39.58203125 15.04199219 C-35.03293709 5.79905997 -30.8762121 -1.18573798 -20.87109375 -5.32421875 C-12.93881474 -7.47657494 -6.43409979 -4.68850055 0 0 Z M-12.87109375 30.67578125 C-13.30679688 31.5471875 -13.7425 32.41859375 -14.19140625 33.31640625 C-14.47685303 33.88697754 -14.7622998 34.45754883 -15.05639648 35.04541016 C-15.68715674 36.30758617 -16.31686314 37.57028935 -16.94555664 38.83349609 C-18.49733543 41.94800648 -20.06563908 45.04967966 -21.671875 48.13671875 C-22.21199219 49.18085937 -22.75210938 50.225 -23.30859375 51.30078125 C-23.80230469 52.24179688 -24.29601562 53.1828125 -24.8046875 54.15234375 C-26.13060564 56.83327799 -26.13060564 56.83327799 -25.87109375 60.67578125 C-22.89186782 60.70262112 -19.9128808 60.72254162 -16.93359375 60.73828125 C-16.08345703 60.74666016 -15.23332031 60.75503906 -14.35742188 60.76367188 C-13.54853516 60.76689453 -12.73964844 60.77011719 -11.90625 60.7734375 C-11.15738525 60.77867432 -10.40852051 60.78391113 -9.63696289 60.78930664 C-7.84441636 60.86919877 -7.84441636 60.86919877 -6.87109375 59.67578125 C-7.05117372 49.59130289 -8.4673232 40.15771349 -11.87109375 30.67578125 C-12.20109375 30.67578125 -12.53109375 30.67578125 -12.87109375 30.67578125 Z " fill="#FFFFFF" transform="translate(567.87109375,1443.32421875)"/>
<path d="M0 0 C10.29627967 7.88308912 15.27296889 26.1448094 20.33374023 37.8503418 C21.7312698 41.07111481 23.16381793 44.24004895 24.8125 47.33984375 C28.07251026 53.73710237 30.33135565 60.59272533 32.75 67.33984375 C33.16185547 68.4803418 33.57371094 69.62083984 33.99804688 70.79589844 C35.15565912 74.00774308 36.29821728 77.22468516 37.43280029 80.44473267 C37.89117673 81.74106779 38.35308653 83.0361594 38.81866455 84.32992554 C39.48097079 86.17447131 40.12742874 88.02468344 40.7734375 89.875 C41.15419434 90.95144775 41.53495117 92.02789551 41.92724609 93.13696289 C43.29400415 98.45758573 43.5078996 103.48068732 40.75 108.33984375 C36.26064557 112.47477546 32.388234 115.02012134 26.09765625 114.84375 C18.40756689 113.19313182 12.20586288 107.55001786 7.87109375 101.234375 C7.31615234 100.29658203 7.31615234 100.29658203 6.75 99.33984375 C6.36972656 98.72496094 5.98945312 98.11007812 5.59765625 97.4765625 C4.49364856 94.6936491 4.61523998 92.30456412 4.75 89.33984375 C3.67363281 89.35144531 2.59726563 89.36304688 1.48828125 89.375 C-5.51247082 89.42490189 -12.39861937 89.40678349 -19.375 88.71484375 C-26.07658763 88.06554309 -26.07658763 88.06554309 -32.25 90.33984375 C-34.67410787 94.16889775 -36.45316538 98.18853617 -38.25 102.33984375 C-40.23029436 106.6477616 -41.58818695 109.36234732 -45.9609375 111.5859375 C-52.92436251 113.87935222 -61.55826955 114.61452035 -68.25 111.33984375 C-71.31968337 108.03993412 -72.26839024 106.36969701 -72.1875 101.83984375 C-70.7037464 96.30049698 -68.18987363 92.2090481 -64.875 87.58984375 C-61.41168594 82.70642602 -58.73668784 77.77620635 -56.25 72.33984375 C-55.72792969 71.23640625 -55.20585938 70.13296875 -54.66796875 68.99609375 C-50.97347019 61.00618422 -48.06162267 52.90804211 -45.375 44.52734375 C-33.79663189 8.78910021 -33.79663189 8.78910021 -18.25 0.33984375 C-12.28461768 -2.19861681 -6.01791238 -2.91492631 0 0 Z M-11.25 36.33984375 C-11.46914062 36.86191406 -11.68828125 37.38398437 -11.9140625 37.921875 C-14.26044774 43.36815943 -16.95495364 48.46515799 -19.98046875 53.56640625 C-21.47153227 56.82380655 -21.88645562 59.79200103 -22.25 63.33984375 C-18.62552059 64.00936193 -15.00033483 64.67497441 -11.375 65.33984375 C-9.82619141 65.62601563 -9.82619141 65.62601563 -8.24609375 65.91796875 C-7.25996094 66.0984375 -6.27382812 66.27890625 -5.2578125 66.46484375 C-4.34660645 66.63242188 -3.43540039 66.8 -2.49658203 66.97265625 C-0.30043021 67.39361123 -0.30043021 67.39361123 1.75 67.33984375 C-0.64780792 59.79451148 -3.54772806 52.50597381 -6.55273438 45.18554688 C-6.90013672 44.33025391 -7.24753906 43.47496094 -7.60546875 42.59375 C-7.92153076 41.82361572 -8.23759277 41.05348145 -8.56323242 40.26000977 C-9.25 38.33984375 -9.25 38.33984375 -9.25 36.33984375 C-9.91 36.33984375 -10.57 36.33984375 -11.25 36.33984375 Z " fill="#FFFFFF" transform="translate(1518.25,1440.66015625)"/>
<path d="M0 0 C8.97607766 6.63939676 14.37324276 13.80741059 16.80078125 25.078125 C18.84031375 38.8449694 16.4986838 47.15962663 9.22900391 58.84863281 C8.10680698 60.72468386 7.13146176 62.64405122 6.17578125 64.609375 C6.93761719 65.43179687 7.69945312 66.25421875 8.484375 67.1015625 C14.11669071 73.18889461 19.72307539 79.29412013 25.23828125 85.48828125 C26.57354575 86.95007283 27.95202856 88.37314691 29.36328125 89.76171875 C32.22548715 92.67944158 32.81529386 95.31590382 32.78515625 99.4296875 C31.69325426 103.33533694 28.7881123 105.16920157 25.546875 107.37890625 C23.17578125 108.609375 23.17578125 108.609375 20.11328125 108.859375 C13.2753345 105.94961043 7.47353058 101.44239709 1.48828125 97.109375 C0.84640869 96.6467627 0.20453613 96.18415039 -0.45678711 95.70751953 C-5.33718418 92.12505319 -9.67117852 88.28824645 -13.32421875 83.421875 C-16.47251562 79.88004102 -18.37660343 78.80416791 -23.08203125 78.4296875 C-28.67685536 78.27570152 -33.46897748 79.02263685 -38.82421875 80.609375 C-38.85 81.63675781 -38.87578125 82.66414063 -38.90234375 83.72265625 C-39.24624657 93.20061802 -39.61610473 102.69990864 -46.07421875 110.234375 C-49.71344995 112.0539906 -52.77924965 113.13037281 -56.82421875 112.609375 C-63.00972139 110.04843234 -66.82665414 105.93852996 -70.14453125 100.24609375 C-71.84825251 93.63683022 -69.42666693 86.29279853 -67.88671875 79.796875 C-66.49605702 73.74665797 -65.27977661 67.72108561 -64.31640625 61.5859375 C-63.53385612 56.85337245 -62.56267155 52.16080323 -61.60546875 47.4609375 C-61.09357069 44.93728006 -60.59313653 42.41126393 -60.10546875 39.8828125 C-59.37624212 36.11778368 -58.61233968 32.36251401 -57.82421875 28.609375 C-57.6840332 27.93696777 -57.54384766 27.26456055 -57.39941406 26.57177734 C-55.04554168 15.52728344 -52.21798348 3.8682683 -42.703125 -3.2421875 C-29.29451866 -11.43788451 -12.28603373 -8.57263839 0 0 Z M-22.32421875 16.921875 C-29.74010719 24.89395507 -30.53184192 37.16240802 -32.43115234 47.48291016 C-32.87118542 49.86346177 -33.34004681 52.23742158 -33.82421875 54.609375 C-26.68514657 53.50894402 -26.68514657 53.50894402 -20.82421875 49.609375 C-20.82421875 48.949375 -20.82421875 48.289375 -20.82421875 47.609375 C-20.16421875 47.609375 -19.50421875 47.609375 -18.82421875 47.609375 C-13.8803548 42.57020765 -9.81976116 36.70418986 -8.82421875 29.609375 C-9.03184554 25.00006018 -10.30143359 22.25597769 -13.19921875 18.671875 C-17.46184869 15.27126767 -17.46184869 15.27126767 -22.32421875 16.921875 Z " fill="#FFFFFF" transform="translate(1138.82421875,1443.390625)"/>
<path d="M0 0 C0.86616943 0.00547852 1.73233887 0.01095703 2.62475586 0.01660156 C11.37161219 0.29430487 23.16911692 2.10673456 29.578125 8.60546875 C30.93669942 11.22630075 30.94811948 13.37070086 30.46875 16.2578125 C28.66609557 21.31525966 25.2941389 25.75164187 21.625 29.625 C19.625 30.5625 19.625 30.5625 17.625 30.625 C15.58203125 29.84765625 15.58203125 29.84765625 13.4375 28.6875 C8.59088474 26.34470093 4.95785897 26.28640578 -0.375 26.625 C-0.86066723 33.39350526 0.54169552 37.73740162 3.5625 43.75 C3.96710449 44.58184814 4.37170898 45.41369629 4.78857422 46.27075195 C7.61530912 51.9542934 10.82999251 57.22580632 14.37524414 62.48022461 C23.66452764 76.51740956 29.22439555 92.72229706 27.625 109.625 C26.74789744 113.56151984 25.36513049 116.99454919 23.625 120.625 C23.150625 121.66269531 22.67625 122.70039062 22.1875 123.76953125 C16.68509666 134.91983418 7.98129884 146.83730833 -4.125 151.3125 C-19.22781817 155.99693343 -37.35233298 154.5247473 -51.375 147.625 C-55.86175968 144.43737271 -57.77117718 141.97107607 -59.375 136.625 C-59.375 130.94986658 -58.20065095 127.64782438 -54.921875 123.0703125 C-51.28759592 119.67464771 -47.29152144 119.36904969 -42.5 119.4375 C-41.51257813 119.44394531 -40.52515625 119.45039062 -39.5078125 119.45703125 C-36.375 119.625 -36.375 119.625 -33.05078125 120.1328125 C-28.80800358 120.70092088 -24.70971907 120.73509113 -20.4375 120.6875 C-19.26864258 120.68073242 -19.26864258 120.68073242 -18.07617188 120.67382812 C-16.17574732 120.66216908 -14.27536294 120.64423877 -12.375 120.625 C-12.065625 120.00625 -11.75625 119.3875 -11.4375 118.75 C-10.75 117.375 -10.0625 116 -9.375 114.625 C-8.15472817 102.09790561 -10.27825523 92.01421556 -16.88671875 81.13671875 C-18.375 78.625 -18.375 78.625 -19.81640625 75.19921875 C-21.36264968 71.65332216 -23.18413818 68.66068134 -25.3125 65.4375 C-32.04839625 54.70216536 -36.40922722 42.12193507 -33.69140625 29.43359375 C-30.2439962 17.08871876 -23.6730674 9.61036293 -13.20703125 2.4609375 C-8.88954591 0.07158816 -4.85782139 -0.06238276 0 0 Z " fill="#FFFFFF" transform="translate(367.375,1400.375)"/>
<path d="M0 0 C3.64121006 2.38098277 6.82119171 5.03766969 10 8 C10.98613281 8.85078125 10.98613281 8.85078125 11.9921875 9.71875 C18.64364105 15.77071632 22.03884094 22.60514611 22.875 31.5625 C23.35871662 43.72655022 21.07516602 54.74488368 15.28125 65.515625 C14.30155469 67.41527811 13.41898335 69.3653091 12.58203125 71.33203125 C8.49501767 80.80784791 3.63491241 90.06274404 -3 98 C-3.49628906 98.67417969 -3.99257812 99.34835937 -4.50390625 100.04296875 C-9.22580215 106.10747601 -14.55627231 109.93145904 -22 112 C-25.73390244 112.45869984 -29.42747249 112.59241581 -33.1875 112.625 C-34.11377197 112.63595703 -35.04004395 112.64691406 -35.99438477 112.65820312 C-42.46813271 112.52418782 -47.32342282 111.07454046 -53 108 C-53.84691406 107.54238281 -54.69382812 107.08476563 -55.56640625 106.61328125 C-66.60724302 99.41837196 -72.18369319 90.80376523 -75 78 C-75.66678636 69.73184914 -73.40771242 62.85772813 -71 55 C-70.65305974 53.60748635 -70.31679965 52.21217846 -70 50.8125 C-64.55275197 30.04486688 -55.33085153 11.08226501 -37.11328125 -0.8984375 C-24.81857311 -7.89115534 -12.36209364 -6.12922966 0 0 Z M-30 24 C-40.98194193 36.63466982 -45.29719585 49.9730334 -45.5625 66.375 C-45.58948975 67.40979492 -45.61647949 68.44458984 -45.64428711 69.51074219 C-45.60952675 76.3193586 -44.6878489 79.97385273 -40 85 C-36.53079855 86.30095054 -34.96556284 86.43661594 -31.58984375 84.91015625 C-28.35460782 82.52398677 -26.54358677 79.73365915 -24.5625 76.3125 C-24.17489502 75.65403076 -23.78729004 74.99556152 -23.38793945 74.31713867 C-19.33986848 67.20761431 -16.57810145 59.74030924 -14 52 C-13.5978125 50.81019531 -13.195625 49.62039063 -12.78125 48.39453125 C-12.09805986 46.35228073 -11.42341836 44.30712691 -10.76171875 42.2578125 C-10 40 -10 40 -9 38 C-8.47398564 33.61079821 -8.43372569 30.0853591 -10.5 26.125 C-16.78236003 20.78499397 -22.83797419 19.76125003 -30 24 Z " fill="#FFFFFF" transform="translate(1155,1700)"/>
<path d="M0 0 C3.58386692 1.71217381 6.69686036 3.49915472 9.78125 6.015625 C12.32836274 8.01412885 14.7001866 9.28056916 17.6328125 10.6328125 C46.04425042 24.55792466 46.04425042 24.55792466 51.3203125 37.0078125 C53.3933713 52.64743062 51.61090237 68.96870278 42.3203125 82.0078125 C41.80210938 82.75804687 41.28390625 83.50828125 40.75 84.28125 C31.73847544 96.46265757 19.5432627 103.59445576 5.23974609 108.03271484 C-0.46186533 109.83117094 -5.83933333 112.18528359 -11.2253418 114.77319336 C-16.09749962 117.03264478 -19.8261885 117.85910637 -25.0234375 116.30859375 C-32.96268295 112.66977292 -38.13154285 108.68467011 -41.83203125 100.60546875 C-43.19945854 96.41496578 -42.69486035 93.22985586 -41.6796875 89.0078125 C-41.45410156 88.05390625 -41.22851562 87.1 -40.99609375 86.1171875 C-40.48086598 83.94949345 -39.96112697 81.78286798 -39.4375 79.6171875 C-38.33949442 74.38751143 -37.77084792 69.14264735 -37.20703125 63.83203125 C-36.75885667 60.58193558 -36.04237031 57.57143418 -35.20825195 54.4074707 C-33.73298006 47.70980443 -33.16465234 40.78464731 -32.35546875 33.98046875 C-30.92249509 22.83123465 -29.13477646 9.80621503 -19.7109375 2.4765625 C-13.31152945 -1.57940035 -7.19008026 -2.66221631 0 0 Z M-0.6796875 28.0078125 C-0.76009277 28.78382812 -0.84049805 29.55984375 -0.92333984 30.359375 C-1.29455661 33.90949938 -1.67454879 37.45863283 -2.0546875 41.0078125 C-2.18101563 42.22855469 -2.30734375 43.44929688 -2.4375 44.70703125 C-3.11739911 50.996098 -4.05645356 56.90261277 -5.6796875 63.0078125 C-6.123345 65.68616494 -6.44127972 68.37260887 -6.7421875 71.0703125 C-7.32446597 76.06058339 -7.94926807 81.03708203 -8.6796875 86.0078125 C0.26239144 84.62096229 6.49588752 81.81386737 12.0703125 74.5078125 C18.01985445 65.33163109 20.69416438 54.9004953 19.3203125 44.0078125 C16.98495696 37.66899031 13.6584146 35.00588324 7.8203125 31.8828125 C6.86125 31.36460938 5.9021875 30.84640625 4.9140625 30.3125 C2.30854493 28.92399915 2.30854493 28.92399915 -0.6796875 28.0078125 Z " fill="#FFFFFF" transform="translate(1306.6796875,1438.9921875)"/>
<path d="M0 0 C3.90552953 4.01108439 6.948962 8.01200299 7.8125 13.625 C7.23392377 16.80716925 6.50867025 18.02330696 4.3125 20.375 C1.7109375 21.46484375 1.7109375 21.46484375 -1.3125 22.3125 C-10.74816207 25.01897654 -10.74816207 25.01897654 -17.90625 31.25 C-20.86770742 39.30516418 -17.94102239 47.88529236 -14.6875 55.375 C-12.65581874 59.46615692 -10.50010299 63.48972686 -8.3359375 67.51196289 C-5.37496746 73.01916888 -2.70059577 78.4432081 -0.6875 84.375 C-0.31882812 85.37402344 0.04984375 86.37304688 0.4296875 87.40234375 C4.56225581 99.38679185 5.08418071 111.58021891 -0.56787109 123.18212891 C-7.7872347 137.03588099 -17.80026603 146.86303238 -32.6875 152.375 C-40.95310789 154.39100192 -50.24051671 154.78239827 -57.6875 150.375 C-65.23709786 143.68331099 -65.23709786 143.68331099 -66.15625 138.97265625 C-66.2086123 134.72476467 -66.21423017 132.16509526 -63.8125 128.5625 C-58.26814233 124.68144963 -52.4510503 121.85257573 -46 119.8125 C-41.73322416 118.44319783 -38.32568221 117.0479502 -34.6875 114.375 C-30.7066732 106.41334639 -31.77504882 94.63755765 -33.73046875 86.140625 C-37.33578263 75.72200366 -43.22833894 66.06374158 -49.3125 56.9375 C-53.59995382 48.94724516 -54.20806777 41.34254669 -54.1875 32.375 C-54.21585938 31.2509375 -54.24421875 30.126875 -54.2734375 28.96875 C-54.29053887 21.64936251 -53.29312996 16.210247 -48.6875 10.375 C-46.17828854 8.03750127 -43.61441311 6.15850219 -40.6875 4.375 C-40.07003906 3.99601562 -39.45257812 3.61703125 -38.81640625 3.2265625 C-27.82969857 -2.84924674 -11.33450377 -6.85342088 0 0 Z " fill="#FFFFFF" transform="translate(593.6875,1656.625)"/>
<path d="M0 0 C4.90246522 1.27849637 9.76604372 1.49530299 14.8125 1.68359375 C15.78630615 1.72194336 16.7601123 1.76029297 17.76342773 1.79980469 C30.29829246 2.21815127 42.38302635 0.99202027 54.75610352 -0.98730469 C63.616211 -2.36228065 72.62477803 -2.93436695 81.25 -0.00390625 C86.12068981 3.83046658 88.76406024 7.84407481 90.125 13.87109375 C90.56262782 18.31469935 89.28714342 21.07851025 87.25 24.99609375 C86.92 25.65609375 86.59 26.31609375 86.25 26.99609375 C85.49380371 27.01591309 84.73760742 27.03573242 83.95849609 27.05615234 C80.51366282 27.15173947 77.06940799 27.26128266 73.625 27.37109375 C72.43519531 27.40203125 71.24539063 27.43296875 70.01953125 27.46484375 C68.86582031 27.50351563 67.71210937 27.5421875 66.5234375 27.58203125 C65.46560059 27.61345215 64.40776367 27.64487305 63.31787109 27.67724609 C60.00400295 28.02166053 57.31606718 28.69286455 54.25 29.99609375 C49.04616846 37.80184106 51.09040638 51.18801651 51.125 60.30859375 C51.12765869 61.57735352 51.13031738 62.84611328 51.13305664 64.15332031 C51.1869062 74.80599075 51.49275776 85.36033815 52.875 95.93359375 C53.53566084 101.59794816 53.44768946 106.79234514 50.6875 111.87109375 C46.80096088 115.25935863 42.63180576 116.66374876 37.5625 117.37109375 C30.57355778 116.23775177 24.39527399 109.70463092 20.1652832 104.36401367 C16.77291127 98.25673232 17.64435599 90.79384151 17.640625 84 C17.62563 82.44057 17.60890009 80.8811558 17.59051514 79.32176208 C17.54697694 75.23653399 17.52687284 71.15152008 17.51177979 67.06610107 C17.49215959 62.88964239 17.45019525 58.71341338 17.41015625 54.53710938 C17.33500094 46.35683117 17.284621 38.1766435 17.25 29.99609375 C16.41863525 29.98151123 15.58727051 29.96692871 14.73071289 29.9519043 C11.60485807 29.89034003 8.47961631 29.81609718 5.35424805 29.73364258 C3.35291389 29.6845844 1.35124694 29.64976238 -0.65039062 29.61523438 C-11.5624208 29.31288593 -20.75448944 27.95269671 -28.75 19.99609375 C-30.77385652 16.41542452 -30.94400846 13.9359299 -30.1875 9.99609375 C-28.87139616 5.64795321 -27.08035877 3.1044286 -23.75 -0.00390625 C-16.45875875 -3.49762602 -7.58745141 -2.03122397 0 0 Z " fill="#FFFFFF" transform="translate(706.75,1439.00390625)"/>
<path d="M0 0 C5.96699452 2.55858877 11.32736304 6.98656683 14 13 C14.98427442 19.3431018 13.11929257 24.56151202 11.125 30.5859375 C10.40774031 32.76262141 9.73585802 34.95515626 9.125 37.1640625 C7.0002142 44.8094971 3.92226911 51.52053461 0.29296875 58.52734375 C-2.35872996 63.65023467 -4.83754768 68.85245705 -7.3125 74.0625 C-7.94309326 75.38314453 -7.94309326 75.38314453 -8.58642578 76.73046875 C-11.84381844 83.58317418 -14.85687566 90.33653169 -17.04150391 97.61132812 C-19.59165727 105.98412663 -22.08458932 113.48988277 -30.0078125 118.19140625 C-33.30242242 119.52863027 -35.59167371 118.85208157 -39 118 C-45.43588188 114.94112078 -49.98076742 110.84615729 -53.3125 104.5 C-54.31247143 100.86374027 -54.86310398 97.7214825 -53.1081543 94.22119141 C-51.85864868 92.28708486 -50.54686719 90.42099506 -49.1875 88.5625 C-45.27930707 83.11556064 -41.91477408 78.13247593 -40.44140625 71.4765625 C-41.34439019 67.47312323 -44.09150787 65.21275652 -46.9375 62.375 C-48.1377315 61.12983131 -49.33563397 59.88241364 -50.53125 58.6328125 C-51.12292969 58.01825195 -51.71460938 57.40369141 -52.32421875 56.77050781 C-58.19893332 50.56371439 -63.22757618 43.97898385 -67.45703125 36.55078125 C-69.7952265 32.68535974 -72.52920395 29.13319559 -75.265625 25.54296875 C-77.84627858 21.75917263 -79.01968871 19.10256781 -78.9375 14.5 C-77.51775932 9.19963479 -74.44470546 6.96313697 -70 4 C-63.97157923 3.07117665 -58.54635195 2.9906433 -53.5 6.6875 C-47.21913921 12.01796738 -43.38728319 19.15797479 -39.2421875 26.14257812 C-36.11762057 31.34287562 -32.73488174 36.21892602 -29 41 C-26.62165533 35.77873605 -24.91879964 30.59985038 -23.4375 25.0625 C-23.12522461 23.92264648 -23.12522461 23.92264648 -22.80664062 22.75976562 C-21.58702265 18.29271035 -21.58702265 18.29271035 -20.50830078 13.7902832 C-19.62641985 9.8564026 -18.78283955 7.01926703 -16 4.0625 C-15.484375 3.49660156 -14.96875 2.93070313 -14.4375 2.34765625 C-10.51359826 -1.33100163 -5.01472764 -0.68894541 0 0 Z " fill="#FFFFFF" transform="translate(1728,1437)"/>
<path d="M0 0 C1.75390625 2.41796875 1.75390625 2.41796875 3 5 C3.5878125 5.8971875 3.5878125 5.8971875 4.1875 6.8125 C5.45103751 10.21433175 5.54507181 13.45703325 5 17 C3.23239948 20.67117032 1.99268214 22.48002364 -1.625 24.375 C-4.66810843 24.9385386 -7.00326332 24.95341581 -10.0625 24.8125 C-13.7966372 24.74551996 -14.64989808 24.73742356 -17.75 27.0625 C-18.86375 28.5165625 -18.86375 28.5165625 -20 30 C-21.03875232 31.16926223 -22.08055202 32.33582262 -23.125 33.5 C-32.47327916 44.2126226 -36.55500838 61.30921153 -36 75.3125 C-35.23726312 80.63432323 -33.03338249 84.45369971 -29 88 C-20.95120332 92.60166859 -10.05146108 92.6470722 -0.98046875 93.4609375 C-0.12437012 93.54077881 0.73172852 93.62062012 1.61376953 93.70288086 C3.30503966 93.85705565 4.99748994 93.99887724 6.69091797 94.12719727 C7.85518311 94.23245728 7.85518311 94.23245728 9.04296875 94.33984375 C9.73414795 94.39519287 10.42532715 94.45054199 11.13745117 94.50756836 C13.53208439 95.14067561 14.49485911 96.05371202 16 98 C16.71434348 103.83380507 15.37608506 109.65136409 13 115 C6.28989137 119.47340576 -3.72825618 118.18230832 -11.5625 118.1875 C-12.53896484 118.19974609 -13.51542969 118.21199219 -14.52148438 118.22460938 C-28.98505428 118.25363326 -42.75902623 113.91242996 -53.3515625 103.7421875 C-65.63315888 90.63907966 -69.80396699 78.16007879 -69.2734375 60.4453125 C-69.00978381 55.19184937 -68.18195604 50.80757647 -66 46 C-65.5968457 45.10933838 -65.5968457 45.10933838 -65.18554688 44.20068359 C-61.22397094 35.58152236 -56.83507608 27.51661278 -51 20 C-50.55914063 19.41863281 -50.11828125 18.83726563 -49.6640625 18.23828125 C-39.27776078 5.10655583 -16.68710534 -4.14450982 0 0 Z " fill="#FFFFFF" transform="translate(774,1692)"/>
<path d="M0 0 C2.73777324 1.32920874 4.28422035 2.63819686 6.15625 5.046875 C8.57330052 15.95499259 4.22075616 27.22289389 0.95581055 37.50732422 C0.14830226 40.07211847 -0.61619964 42.64698385 -1.375 45.2265625 C-2.24588437 48.14838673 -3.16863473 51.02493388 -4.23046875 53.8828125 C-7.0544112 61.56597125 -9.24640653 68.77513414 -7.84375 77.046875 C-5.44268242 81.57196389 -2.45146801 83.03772543 2.15625 85.046875 C5.64641358 86.00830941 9.17578728 86.74511554 12.71875 87.484375 C23.51151259 89.8373164 34.0949705 92.36721011 44.15625 97.046875 C44.81141223 101.41462318 44.001074 103.71340693 41.46875 107.171875 C37.16847672 112.43895445 34.03321193 115.2252547 27.15625 116.046875 C6.08869802 116.17272657 -17.37729833 109.6591989 -33.84375 96.171875 C-34.689375 95.47964844 -35.535 94.78742188 -36.40625 94.07421875 C-37.6128125 93.07068359 -37.6128125 93.07068359 -38.84375 92.046875 C-39.545 91.47066406 -40.24625 90.89445312 -40.96875 90.30078125 C-47.60420394 84.75741244 -47.60420394 84.75741244 -48.22363281 80.33422852 C-48.42132194 71.64051984 -46.55066069 65.65151873 -42.59375 57.984375 C-39.09860364 50.97114826 -36.07194612 44.1353128 -33.70605469 36.65649414 C-32.73922947 33.73056133 -31.47747468 31.04724134 -30.09375 28.296875 C-27.60842419 22.59568822 -27.45314924 17.66705661 -27.85253906 11.56542969 C-28.10064086 7.09736223 -27.70931129 4.53351287 -24.84375 1.046875 C-17.64600055 -4.47501654 -8.14010642 -2.44203193 0 0 Z " fill="#FFFFFF" transform="translate(1507.84375,1696.953125)"/>
</svg>
